<svg width="804" height="1065" viewBox="0 0 804 1065" fill="none" xmlns="http://www.w3.org/2000/svg">
<rect width="804" height="1065" rx="50" fill="#282C34"/>
<path d="M252.561 216.879C266.113 219.005 283.233 222.403 301.506 227.591C297.385 239.323 293.865 251.655 291.222 264.3C278.091 264.18 265.116 265.092 252.633 266.713C251.444 247.932 251.756 230.677 252.561 216.879ZM234.624 269.547C233.591 254.585 233.519 240.595 233.903 228.299C233.267 228.923 232.558 229.452 231.921 230.088C216.904 245.098 204.565 261.742 194.354 279.286C206.211 275.779 219.727 272.297 234.624 269.547ZM260.13 317.304C267.086 305.368 275.496 294.056 285.707 283.837C286.248 283.297 286.837 282.852 287.377 282.324C276.144 282.42 265.007 283.309 254.231 284.75C255.48 295.509 257.523 306.448 260.13 317.304ZM244.8 330.765C240.775 316.415 238.036 301.849 236.318 287.68C215.138 291.714 196.48 297.25 182.724 301.957C182.484 302.498 182.219 303.014 181.979 303.554C188.01 317.052 196.828 334.74 208.458 353.172C219.703 345.055 231.861 337.381 244.8 330.765ZM194.906 363.463C186.304 349.99 179.324 337.045 173.641 325.493C166.517 347.432 162.649 370.152 162 392.991C171.107 383.889 182.183 373.646 194.906 363.463ZM163.982 431.418C167.01 454.497 173.401 477.145 183.12 498.712C187.578 486.343 193.308 472.234 200.541 457.584C186.58 448.769 174.242 439.655 163.982 431.418ZM165.4 413.754C176.297 422.94 190.653 433.999 207.317 444.627C213.948 432.546 221.625 420.502 230.419 409.07C220.796 399.08 212.134 388.404 204.421 377.585C188.503 390.446 175.095 403.487 165.4 413.754ZM217.877 367.27C223.956 375.88 230.768 384.285 238.06 392.331C238.721 377.849 241.244 363.463 245.713 349.534C235.958 354.973 226.587 360.93 217.877 367.27ZM308.498 209.434C314.228 195.613 320.368 183.088 326.182 172.257C306.119 178.885 286.717 188.024 268.648 200.056C280.614 202.277 294.129 205.267 308.498 209.434ZM327.035 215.282C338.076 219.137 349.249 223.748 360.218 229.104C370.574 217.119 379.452 207.02 385.411 200.284C376.761 193.115 363.041 182.091 348.612 171.644C341.848 183.484 334.124 198.435 327.035 215.282ZM247.671 539.251C230.395 537.678 214.513 534.964 201.213 532.13C209.996 545.435 220.232 558.044 231.933 569.74C238.096 575.9 244.536 581.592 251.167 586.936C249.341 573.21 247.864 556.855 247.671 539.251ZM571.735 230.076C518.129 176.508 445.288 153.728 375.223 161.473C394.217 175.955 409.343 189.02 410.448 189.993L419.663 198.002L411.505 207.081C411.313 207.297 400.741 219.101 385.435 236.693C390.889 236.152 396.356 235.852 401.834 235.852C443.883 235.852 485.944 251.859 517.961 283.849C581.995 347.853 581.995 451.988 517.961 515.991C462.48 571.433 376.869 578.746 313.339 538.11C301.157 539.876 288.903 540.68 276.925 540.68C271.555 540.68 266.281 540.488 261.055 540.224C261.379 562.679 263.854 583.057 266.293 598.067C307.008 625.914 354.391 640 401.846 640C463.381 640 524.905 616.584 571.747 569.776C665.42 476.088 665.42 323.728 571.735 230.076ZM297.265 526.414C293.3 523.136 289.432 519.69 285.719 515.991C277.658 507.934 270.618 499.228 264.587 490.054C262.557 502.386 261.463 514.755 261.151 526.799C272.901 527.435 285.083 527.327 297.265 526.414ZM319.959 233.366C316.571 242.889 313.676 252.832 311.297 262.955C322.23 255.726 333.883 250.118 345.897 245.783C346.318 245.291 346.786 244.726 347.207 244.234C338.196 240.079 329.042 236.489 319.959 233.366ZM239.286 421.511C232.005 431.406 225.458 441.745 219.775 452.18C230.167 458.184 241.268 463.672 252.789 468.379C245.917 453.381 241.4 437.59 239.286 421.511ZM252.153 483.761C238.385 478.514 225.277 472.089 213.083 465.113C203.772 484.158 196.973 502.374 192.395 516.46C206.836 519.954 226.311 523.761 247.815 525.814C248.224 512.077 249.545 497.907 252.153 483.761Z" fill="url(#paint0_linear_403_480)"/>
<path d="M178.099 862.822C178.685 864.58 179.051 865.972 179.197 866.997C179.344 868.022 179.148 868.804 178.611 869.341C178.074 869.829 177.122 870.122 175.755 870.22C174.388 870.366 172.508 870.439 170.115 870.439C167.625 870.439 165.672 870.391 164.256 870.293C162.889 870.244 161.839 870.122 161.106 869.927C160.374 869.683 159.861 869.365 159.568 868.975C159.275 868.584 159.031 868.071 158.836 867.437L152.464 848.394H116.868L110.862 866.924C110.667 867.607 110.398 868.193 110.057 868.682C109.764 869.121 109.251 869.487 108.519 869.78C107.835 870.024 106.834 870.195 105.516 870.293C104.246 870.391 102.562 870.439 100.462 870.439C98.2158 870.439 96.458 870.366 95.1885 870.22C93.9189 870.073 93.04 869.731 92.5518 869.194C92.0635 868.608 91.8926 867.803 92.0391 866.777C92.1855 865.752 92.5518 864.385 93.1377 862.676L122.361 778.594C122.654 777.764 122.996 777.104 123.387 776.616C123.777 776.079 124.388 775.688 125.218 775.444C126.097 775.151 127.293 774.98 128.807 774.932C130.32 774.834 132.322 774.785 134.812 774.785C137.693 774.785 139.988 774.834 141.697 774.932C143.406 774.98 144.725 775.151 145.652 775.444C146.629 775.688 147.312 776.079 147.703 776.616C148.143 777.153 148.509 777.886 148.802 778.813L178.099 862.822ZM134.593 793.315H134.52L121.116 833.599H147.996L134.593 793.315ZM252.732 867.51C252.732 867.998 252.586 868.438 252.293 868.828C252 869.17 251.512 869.463 250.828 869.707C250.145 869.951 249.192 870.122 247.972 870.22C246.8 870.366 245.335 870.439 243.577 870.439C241.771 870.439 240.257 870.366 239.036 870.22C237.864 870.122 236.937 869.951 236.253 869.707C235.569 869.463 235.081 869.17 234.788 868.828C234.495 868.438 234.349 867.998 234.349 867.51V830.229C234.349 827.056 234.104 824.565 233.616 822.759C233.177 820.952 232.518 819.414 231.639 818.145C230.76 816.826 229.612 815.825 228.196 815.142C226.829 814.409 225.218 814.043 223.362 814.043C221.019 814.043 218.65 814.897 216.258 816.606C213.865 818.315 211.375 820.806 208.787 824.077V867.51C208.787 867.998 208.641 868.438 208.348 868.828C208.055 869.17 207.542 869.463 206.81 869.707C206.126 869.951 205.198 870.122 204.026 870.22C202.854 870.366 201.365 870.439 199.559 870.439C197.752 870.439 196.263 870.366 195.091 870.22C193.919 870.122 192.967 869.951 192.234 869.707C191.551 869.463 191.062 869.17 190.77 868.828C190.477 868.438 190.33 867.998 190.33 867.51V802.178C190.33 801.689 190.452 801.274 190.696 800.933C190.94 800.542 191.38 800.225 192.015 799.98C192.649 799.736 193.455 799.565 194.432 799.468C195.457 799.321 196.727 799.248 198.24 799.248C199.803 799.248 201.097 799.321 202.122 799.468C203.147 799.565 203.929 799.736 204.466 799.98C205.052 800.225 205.467 800.542 205.711 800.933C205.955 801.274 206.077 801.689 206.077 802.178V809.722C209.69 805.815 213.353 802.886 217.063 800.933C220.823 798.979 224.729 798.003 228.782 798.003C233.226 798.003 236.961 798.735 239.988 800.2C243.064 801.665 245.53 803.667 247.386 806.206C249.29 808.696 250.657 811.626 251.487 814.995C252.317 818.364 252.732 822.417 252.732 827.153V867.51ZM326.561 867.729C326.561 868.413 326.316 868.95 325.828 869.341C325.34 869.731 324.559 870 323.484 870.146C322.459 870.342 320.921 870.439 318.87 870.439C316.673 870.439 315.062 870.342 314.036 870.146C313.06 870 312.352 869.731 311.912 869.341C311.521 868.95 311.326 868.413 311.326 867.729V862.529C308.641 865.41 305.564 867.656 302.098 869.268C298.68 870.879 294.871 871.685 290.672 871.685C287.205 871.685 284.007 871.221 281.077 870.293C278.196 869.414 275.682 868.096 273.533 866.338C271.434 864.531 269.798 862.31 268.626 859.673C267.454 857.036 266.868 853.96 266.868 850.444C266.868 846.636 267.601 843.34 269.065 840.557C270.579 837.725 272.801 835.405 275.73 833.599C278.709 831.743 282.396 830.376 286.79 829.497C291.185 828.618 296.287 828.179 302.098 828.179H308.47V824.224C308.47 822.173 308.25 820.391 307.811 818.877C307.42 817.314 306.736 816.021 305.76 814.995C304.832 813.97 303.562 813.213 301.951 812.725C300.389 812.236 298.436 811.992 296.092 811.992C293.016 811.992 290.257 812.334 287.815 813.018C285.423 813.701 283.299 814.458 281.443 815.288C279.588 816.118 278.025 816.875 276.756 817.559C275.535 818.242 274.534 818.584 273.753 818.584C273.216 818.584 272.728 818.413 272.288 818.071C271.897 817.729 271.556 817.241 271.263 816.606C271.019 815.972 270.823 815.19 270.677 814.263C270.53 813.335 270.457 812.31 270.457 811.187C270.457 809.673 270.579 808.477 270.823 807.598C271.067 806.719 271.531 805.938 272.215 805.254C272.898 804.521 274.095 803.74 275.804 802.91C277.513 802.031 279.515 801.226 281.81 800.493C284.104 799.761 286.595 799.175 289.28 798.735C292.015 798.247 294.822 798.003 297.703 798.003C302.83 798.003 307.2 798.516 310.813 799.541C314.476 800.518 317.479 802.056 319.822 804.155C322.166 806.206 323.875 808.867 324.949 812.139C326.023 815.41 326.561 819.292 326.561 823.784V867.729ZM308.47 839.751H301.438C298.46 839.751 295.921 839.971 293.821 840.41C291.722 840.85 290.013 841.509 288.694 842.388C287.376 843.267 286.399 844.341 285.765 845.61C285.179 846.831 284.886 848.247 284.886 849.858C284.886 852.593 285.74 854.741 287.449 856.304C289.207 857.866 291.624 858.647 294.7 858.647C297.288 858.647 299.656 857.988 301.805 856.67C304.002 855.352 306.224 853.423 308.47 850.884V839.751ZM394.456 857.109C394.456 858.379 394.407 859.453 394.31 860.332C394.261 861.162 394.163 861.87 394.017 862.456C393.919 863.042 393.772 863.53 393.577 863.921C393.431 864.263 393.064 864.727 392.479 865.312C391.893 865.85 390.892 866.533 389.476 867.363C388.06 868.145 386.448 868.853 384.642 869.487C382.835 870.122 380.857 870.635 378.709 871.025C376.609 871.416 374.437 871.611 372.19 871.611C367.161 871.611 362.693 870.83 358.787 869.268C354.93 867.705 351.683 865.41 349.046 862.383C346.409 859.307 344.407 855.571 343.04 851.177C341.722 846.782 341.062 841.753 341.062 836.089C341.062 829.546 341.868 823.906 343.479 819.17C345.14 814.385 347.435 810.43 350.364 807.305C353.294 804.18 356.761 801.86 360.765 800.347C364.769 798.833 369.163 798.076 373.948 798.076C375.901 798.076 377.806 798.247 379.661 798.589C381.565 798.931 383.323 799.395 384.935 799.98C386.595 800.566 388.06 801.226 389.329 801.958C390.647 802.69 391.575 803.325 392.112 803.862C392.649 804.399 393.016 804.863 393.211 805.254C393.455 805.596 393.626 806.06 393.724 806.646C393.87 807.231 393.968 807.964 394.017 808.843C394.114 809.673 394.163 810.698 394.163 811.919C394.163 814.751 393.919 816.753 393.431 817.925C392.942 819.048 392.308 819.609 391.526 819.609C390.696 819.609 389.817 819.268 388.89 818.584C387.962 817.9 386.863 817.144 385.594 816.313C384.324 815.483 382.811 814.727 381.053 814.043C379.295 813.359 377.195 813.018 374.754 813.018C369.969 813.018 366.307 814.873 363.768 818.584C361.229 822.246 359.959 827.642 359.959 834.771C359.959 838.286 360.276 841.387 360.911 844.072C361.546 846.758 362.474 849.004 363.694 850.811C364.964 852.617 366.526 853.984 368.382 854.912C370.286 855.791 372.483 856.23 374.974 856.23C377.513 856.23 379.686 855.864 381.492 855.132C383.348 854.351 384.959 853.496 386.326 852.568C387.693 851.641 388.841 850.811 389.769 850.078C390.696 849.297 391.478 848.906 392.112 848.906C392.552 848.906 392.918 849.028 393.211 849.272C393.504 849.517 393.724 849.98 393.87 850.664C394.065 851.299 394.212 852.129 394.31 853.154C394.407 854.18 394.456 855.498 394.456 857.109ZM473.191 834.185C473.191 839.751 472.459 844.829 470.994 849.419C469.529 854.009 467.308 857.964 464.329 861.284C461.351 864.604 457.615 867.168 453.123 868.975C448.631 870.781 443.382 871.685 437.376 871.685C431.565 871.685 426.512 870.879 422.215 869.268C417.918 867.656 414.354 865.312 411.521 862.236C408.689 859.16 406.59 855.376 405.223 850.884C403.855 846.392 403.172 841.265 403.172 835.503C403.172 829.937 403.904 824.858 405.369 820.269C406.883 815.63 409.129 811.675 412.107 808.403C415.086 805.083 418.797 802.52 423.24 800.713C427.732 798.906 432.981 798.003 438.987 798.003C444.847 798.003 449.925 798.809 454.222 800.42C458.519 801.982 462.059 804.302 464.842 807.378C467.674 810.454 469.773 814.238 471.141 818.73C472.508 823.223 473.191 828.374 473.191 834.185ZM454.222 834.917C454.222 831.694 453.953 828.74 453.416 826.055C452.928 823.32 452.073 820.952 450.853 818.95C449.632 816.948 447.996 815.386 445.945 814.263C443.943 813.14 441.404 812.578 438.328 812.578C435.594 812.578 433.201 813.091 431.15 814.116C429.1 815.093 427.415 816.558 426.097 818.511C424.778 820.415 423.777 822.734 423.094 825.469C422.459 828.154 422.142 831.23 422.142 834.697C422.142 837.92 422.41 840.898 422.947 843.633C423.484 846.318 424.339 848.662 425.511 850.664C426.731 852.666 428.367 854.229 430.418 855.352C432.469 856.426 435.008 856.963 438.035 856.963C440.818 856.963 443.235 856.475 445.286 855.498C447.337 854.473 449.021 853.008 450.34 851.104C451.658 849.199 452.635 846.904 453.27 844.219C453.904 841.484 454.222 838.384 454.222 834.917ZM550.242 867.51C550.242 867.998 550.096 868.438 549.803 868.828C549.51 869.17 549.021 869.463 548.338 869.707C547.654 869.951 546.702 870.122 545.481 870.22C544.31 870.366 542.845 870.439 541.087 870.439C539.28 870.439 537.767 870.366 536.546 870.22C535.374 870.122 534.446 869.951 533.763 869.707C533.079 869.463 532.591 869.17 532.298 868.828C532.005 868.438 531.858 867.998 531.858 867.51V830.229C531.858 827.056 531.614 824.565 531.126 822.759C530.687 820.952 530.027 819.414 529.148 818.145C528.27 816.826 527.122 815.825 525.706 815.142C524.339 814.409 522.728 814.043 520.872 814.043C518.528 814.043 516.16 814.897 513.768 816.606C511.375 818.315 508.885 820.806 506.297 824.077V867.51C506.297 867.998 506.15 868.438 505.857 868.828C505.564 869.17 505.052 869.463 504.319 869.707C503.636 869.951 502.708 870.122 501.536 870.22C500.364 870.366 498.875 870.439 497.068 870.439C495.262 870.439 493.772 870.366 492.601 870.22C491.429 870.122 490.477 869.951 489.744 869.707C489.061 869.463 488.572 869.17 488.279 868.828C487.986 868.438 487.84 867.998 487.84 867.51V802.178C487.84 801.689 487.962 801.274 488.206 800.933C488.45 800.542 488.89 800.225 489.524 799.98C490.159 799.736 490.965 799.565 491.941 799.468C492.967 799.321 494.236 799.248 495.75 799.248C497.312 799.248 498.606 799.321 499.632 799.468C500.657 799.565 501.438 799.736 501.976 799.98C502.562 800.225 502.977 800.542 503.221 800.933C503.465 801.274 503.587 801.689 503.587 802.178V809.722C507.2 805.815 510.862 802.886 514.573 800.933C518.333 798.979 522.239 798.003 526.292 798.003C530.735 798.003 534.471 798.735 537.498 800.2C540.574 801.665 543.04 803.667 544.896 806.206C546.8 808.696 548.167 811.626 548.997 814.995C549.827 818.364 550.242 822.417 550.242 827.153V867.51ZM630.369 867.51C630.369 868.047 630.247 868.511 630.003 868.901C629.759 869.243 629.344 869.536 628.758 869.78C628.172 870.024 627.366 870.195 626.341 870.293C625.364 870.391 624.144 870.439 622.679 870.439C621.116 870.439 619.847 870.391 618.87 870.293C617.894 870.195 617.088 870.024 616.453 869.78C615.867 869.536 615.428 869.243 615.135 868.901C614.891 868.511 614.769 868.047 614.769 867.51V860.259C611.399 863.872 607.859 866.68 604.148 868.682C600.486 870.684 596.409 871.685 591.917 871.685C586.937 871.685 582.713 870.732 579.246 868.828C575.828 866.875 573.021 864.263 570.823 860.991C568.675 857.72 567.112 853.911 566.136 849.565C565.159 845.171 564.671 840.557 564.671 835.723C564.671 829.912 565.281 824.688 566.502 820.049C567.771 815.41 569.603 811.455 571.995 808.184C574.388 804.912 577.366 802.397 580.931 800.64C584.495 798.882 588.597 798.003 593.235 798.003C596.897 798.003 600.218 798.76 603.196 800.273C606.175 801.738 609.129 803.911 612.059 806.792V771.416C612.059 770.928 612.181 770.488 612.425 770.098C612.718 769.707 613.206 769.39 613.89 769.146C614.622 768.853 615.574 768.633 616.746 768.486C617.918 768.34 619.407 768.267 621.214 768.267C623.021 768.267 624.51 768.34 625.682 768.486C626.854 768.633 627.781 768.853 628.465 769.146C629.148 769.39 629.637 769.707 629.93 770.098C630.223 770.488 630.369 770.928 630.369 771.416V867.51ZM612.059 823.857C609.422 820.537 606.883 817.998 604.441 816.24C602.049 814.482 599.534 813.604 596.897 813.604C594.505 813.604 592.43 814.214 590.672 815.435C588.963 816.606 587.571 818.193 586.497 820.195C585.472 822.197 584.69 824.443 584.153 826.934C583.665 829.375 583.421 831.89 583.421 834.478C583.421 837.212 583.641 839.873 584.08 842.461C584.52 845.049 585.228 847.368 586.204 849.419C587.229 851.421 588.572 853.032 590.232 854.253C591.893 855.474 593.992 856.084 596.531 856.084C597.801 856.084 599.021 855.913 600.193 855.571C601.414 855.181 602.635 854.57 603.855 853.74C605.125 852.91 606.419 851.836 607.737 850.518C609.056 849.15 610.496 847.49 612.059 845.537V823.857ZM704.637 867.729C704.637 868.413 704.393 868.95 703.904 869.341C703.416 869.731 702.635 870 701.561 870.146C700.535 870.342 698.997 870.439 696.946 870.439C694.749 870.439 693.138 870.342 692.112 870.146C691.136 870 690.428 869.731 689.988 869.341C689.598 868.95 689.402 868.413 689.402 867.729V862.529C686.717 865.41 683.641 867.656 680.174 869.268C676.756 870.879 672.947 871.685 668.748 871.685C665.281 871.685 662.083 871.221 659.153 870.293C656.272 869.414 653.758 868.096 651.609 866.338C649.51 864.531 647.874 862.31 646.702 859.673C645.53 857.036 644.944 853.96 644.944 850.444C644.944 846.636 645.677 843.34 647.142 840.557C648.655 837.725 650.877 835.405 653.807 833.599C656.785 831.743 660.472 830.376 664.866 829.497C669.261 828.618 674.363 828.179 680.174 828.179H686.546V824.224C686.546 822.173 686.326 820.391 685.887 818.877C685.496 817.314 684.812 816.021 683.836 814.995C682.908 813.97 681.639 813.213 680.027 812.725C678.465 812.236 676.512 811.992 674.168 811.992C671.092 811.992 668.333 812.334 665.892 813.018C663.499 813.701 661.375 814.458 659.52 815.288C657.664 816.118 656.102 816.875 654.832 817.559C653.611 818.242 652.61 818.584 651.829 818.584C651.292 818.584 650.804 818.413 650.364 818.071C649.974 817.729 649.632 817.241 649.339 816.606C649.095 815.972 648.899 815.19 648.753 814.263C648.606 813.335 648.533 812.31 648.533 811.187C648.533 809.673 648.655 808.477 648.899 807.598C649.144 806.719 649.607 805.938 650.291 805.254C650.975 804.521 652.171 803.74 653.88 802.91C655.589 802.031 657.591 801.226 659.886 800.493C662.181 799.761 664.671 799.175 667.356 798.735C670.091 798.247 672.898 798.003 675.779 798.003C680.906 798.003 685.276 798.516 688.89 799.541C692.552 800.518 695.555 802.056 697.898 804.155C700.242 806.206 701.951 808.867 703.025 812.139C704.1 815.41 704.637 819.292 704.637 823.784V867.729ZM686.546 839.751H679.515C676.536 839.751 673.997 839.971 671.897 840.41C669.798 840.85 668.089 841.509 666.771 842.388C665.452 843.267 664.476 844.341 663.841 845.61C663.255 846.831 662.962 848.247 662.962 849.858C662.962 852.593 663.816 854.741 665.525 856.304C667.283 857.866 669.7 858.647 672.776 858.647C675.364 858.647 677.732 857.988 679.881 856.67C682.078 855.352 684.3 853.423 686.546 850.884V839.751Z" fill="#4DC931"/>
<defs>
<linearGradient id="paint0_linear_403_480" x1="363.834" y1="162.554" x2="435.034" y2="606.196" gradientUnits="userSpaceOnUse">
<stop stop-color="#50D133"/>
<stop offset="1" stop-color="#3DA126"/>
</linearGradient>
</defs>
</svg>
