<svg width="804" height="1065" viewBox="0 0 804 1065" fill="none" xmlns="http://www.w3.org/2000/svg">
<rect width="804" height="1065" rx="50" fill="#282C34"/>
<path d="M231.787 330.479L178.181 276.556C148.608 306.241 132 346.465 132 388.401C132 430.337 148.608 470.561 178.181 500.246L232.015 446.323C216.676 430.977 208.038 410.164 207.996 388.448C207.953 366.733 216.509 345.886 231.787 330.479Z" fill="#E8710A"/>
<path d="M178.181 276.556L231.787 330.479C239.393 322.852 248.425 316.802 258.367 312.673C268.308 308.545 278.965 306.42 289.727 306.42C300.49 306.42 311.146 308.545 321.088 312.673C331.03 316.802 340.062 322.852 347.668 330.479L386.675 263.532L384.393 261.705C353.968 238.968 316.39 227.956 278.527 230.683C240.665 233.41 205.046 249.693 178.181 276.556Z" fill="#F9AB00"/>
<path d="M386.903 513.27L347.668 446.551C340.062 454.178 331.03 460.229 321.088 464.357C311.146 468.486 300.49 470.61 289.727 470.61C278.965 470.61 268.308 468.486 258.367 464.357C248.425 460.229 239.393 454.178 231.787 446.551L178.181 500.474C204.993 527.098 240.432 543.231 278.087 545.955C315.743 548.679 353.128 537.814 383.481 515.326L385.99 513.27" fill="#F9AB00"/>
<path d="M401.958 276.556C372.385 306.241 355.777 346.465 355.777 388.401C355.777 430.337 372.385 470.561 401.958 500.246L455.792 446.323C440.426 430.931 431.793 410.055 431.793 388.287C431.793 366.519 440.426 345.643 455.792 330.251C471.159 314.859 492.001 306.212 513.732 306.212C535.464 306.212 556.306 314.859 571.673 330.251L625.735 276.556C611.052 261.82 593.611 250.129 574.412 242.153C555.213 234.176 534.632 230.07 513.846 230.07C493.061 230.07 472.48 234.176 453.281 242.153C434.081 250.129 416.641 261.82 401.958 276.556Z" fill="#F9AB00"/>
<path d="M625.735 276.556L572.129 330.479C587.495 345.872 596.128 366.748 596.128 388.515C596.128 410.283 587.495 431.159 572.129 446.551C556.762 461.943 535.92 470.591 514.189 470.591C492.457 470.591 471.615 461.943 456.248 446.551L401.958 500.474C431.602 530.198 471.821 546.909 513.766 546.93C534.535 546.941 555.103 542.854 574.295 534.903C593.487 526.951 610.927 515.291 625.621 500.589C640.314 485.886 651.973 468.428 659.93 449.213C667.888 429.997 671.989 409.399 672 388.596C672.011 367.793 667.93 347.191 659.992 327.967C652.054 308.743 640.413 291.274 625.735 276.556Z" fill="#E8710A"/>
<path d="M295.359 859.688C295.359 860.99 295.307 862.109 295.203 863.047C295.151 863.932 295.047 864.714 294.891 865.391C294.734 866.016 294.526 866.562 294.266 867.031C294.005 867.5 293.589 868.047 293.016 868.672C292.443 869.245 291.323 870 289.656 870.938C288.042 871.875 286.036 872.786 283.641 873.672C281.297 874.505 278.589 875.208 275.516 875.781C272.495 876.354 269.214 876.641 265.672 876.641C258.745 876.641 252.495 875.573 246.922 873.438C241.349 871.302 236.609 868.125 232.703 863.906C228.797 859.635 225.802 854.323 223.719 847.969C221.635 841.615 220.594 834.219 220.594 825.781C220.594 817.188 221.74 809.557 224.031 802.891C226.323 796.224 229.526 790.625 233.641 786.094C237.755 781.562 242.677 778.125 248.406 775.781C254.188 773.438 260.542 772.266 267.469 772.266C270.281 772.266 272.99 772.5 275.594 772.969C278.198 773.438 280.594 774.062 282.781 774.844C285.021 775.573 287.026 776.432 288.797 777.422C290.568 778.411 291.792 779.271 292.469 780C293.198 780.677 293.693 781.25 293.953 781.719C294.214 782.188 294.422 782.786 294.578 783.516C294.734 784.245 294.839 785.104 294.891 786.094C294.995 787.083 295.047 788.307 295.047 789.766C295.047 791.328 294.995 792.656 294.891 793.75C294.786 794.844 294.604 795.729 294.344 796.406C294.083 797.083 293.771 797.578 293.406 797.891C293.042 798.203 292.625 798.359 292.156 798.359C291.375 798.359 290.385 797.917 289.188 797.031C287.99 796.094 286.427 795.078 284.5 793.984C282.625 792.839 280.359 791.823 277.703 790.938C275.099 790 271.974 789.531 268.328 789.531C264.318 789.531 260.724 790.365 257.547 792.031C254.422 793.646 251.74 795.99 249.5 799.062C247.312 802.083 245.646 805.755 244.5 810.078C243.354 814.401 242.781 819.271 242.781 824.688C242.781 830.625 243.38 835.781 244.578 840.156C245.828 844.479 247.573 848.047 249.812 850.859C252.104 853.672 254.839 855.781 258.016 857.188C261.245 858.542 264.865 859.219 268.875 859.219C272.521 859.219 275.672 858.802 278.328 857.969C280.984 857.083 283.25 856.12 285.125 855.078C287.052 854.036 288.615 853.099 289.812 852.266C291.062 851.432 292.026 851.016 292.703 851.016C293.224 851.016 293.641 851.12 293.953 851.328C294.266 851.536 294.526 851.953 294.734 852.578C294.943 853.203 295.099 854.089 295.203 855.234C295.307 856.328 295.359 857.812 295.359 859.688ZM379.422 836.797C379.422 842.734 378.641 848.151 377.078 853.047C375.516 857.943 373.146 862.161 369.969 865.703C366.792 869.245 362.807 871.979 358.016 873.906C353.224 875.833 347.625 876.797 341.219 876.797C335.021 876.797 329.63 875.938 325.047 874.219C320.464 872.5 316.661 870 313.641 866.719C310.62 863.438 308.38 859.401 306.922 854.609C305.464 849.818 304.734 844.349 304.734 838.203C304.734 832.266 305.516 826.849 307.078 821.953C308.693 817.005 311.089 812.786 314.266 809.297C317.443 805.755 321.401 803.021 326.141 801.094C330.932 799.167 336.531 798.203 342.938 798.203C349.188 798.203 354.604 799.062 359.188 800.781C363.771 802.448 367.547 804.922 370.516 808.203C373.536 811.484 375.776 815.521 377.234 820.312C378.693 825.104 379.422 830.599 379.422 836.797ZM359.188 837.578C359.188 834.141 358.901 830.99 358.328 828.125C357.807 825.208 356.896 822.682 355.594 820.547C354.292 818.411 352.547 816.745 350.359 815.547C348.224 814.349 345.516 813.75 342.234 813.75C339.318 813.75 336.766 814.297 334.578 815.391C332.391 816.432 330.594 817.995 329.188 820.078C327.781 822.109 326.714 824.583 325.984 827.5C325.307 830.365 324.969 833.646 324.969 837.344C324.969 840.781 325.255 843.958 325.828 846.875C326.401 849.74 327.312 852.24 328.562 854.375C329.865 856.51 331.609 858.177 333.797 859.375C335.984 860.521 338.693 861.094 341.922 861.094C344.891 861.094 347.469 860.573 349.656 859.531C351.844 858.438 353.641 856.875 355.047 854.844C356.453 852.812 357.495 850.365 358.172 847.5C358.849 844.583 359.188 841.276 359.188 837.578Z" fill="#E8710A"/>
<path d="M414.734 872.344C414.734 872.865 414.578 873.333 414.266 873.75C413.953 874.115 413.406 874.427 412.625 874.688C411.896 874.948 410.906 875.13 409.656 875.234C408.406 875.391 406.818 875.469 404.891 875.469C402.964 875.469 401.375 875.391 400.125 875.234C398.875 875.13 397.859 874.948 397.078 874.688C396.349 874.427 395.828 874.115 395.516 873.75C395.203 873.333 395.047 872.865 395.047 872.344V769.609C395.047 769.089 395.203 768.62 395.516 768.203C395.828 767.786 396.349 767.448 397.078 767.188C397.859 766.875 398.875 766.641 400.125 766.484C401.375 766.328 402.964 766.25 404.891 766.25C406.818 766.25 408.406 766.328 409.656 766.484C410.906 766.641 411.896 766.875 412.625 767.188C413.406 767.448 413.953 767.786 414.266 768.203C414.578 768.62 414.734 769.089 414.734 769.609V872.344ZM493.797 872.578C493.797 873.307 493.536 873.88 493.016 874.297C492.495 874.714 491.661 875 490.516 875.156C489.422 875.365 487.781 875.469 485.594 875.469C483.25 875.469 481.531 875.365 480.438 875.156C479.396 875 478.641 874.714 478.172 874.297C477.755 873.88 477.547 873.307 477.547 872.578V867.031C474.682 870.104 471.401 872.5 467.703 874.219C464.057 875.938 459.995 876.797 455.516 876.797C451.818 876.797 448.406 876.302 445.281 875.312C442.208 874.375 439.526 872.969 437.234 871.094C434.995 869.167 433.25 866.797 432 863.984C430.75 861.172 430.125 857.891 430.125 854.141C430.125 850.078 430.906 846.562 432.469 843.594C434.083 840.573 436.453 838.099 439.578 836.172C442.755 834.193 446.688 832.734 451.375 831.797C456.062 830.859 461.505 830.391 467.703 830.391H474.5V826.172C474.5 823.984 474.266 822.083 473.797 820.469C473.38 818.802 472.651 817.422 471.609 816.328C470.62 815.234 469.266 814.427 467.547 813.906C465.88 813.385 463.797 813.125 461.297 813.125C458.016 813.125 455.073 813.49 452.469 814.219C449.917 814.948 447.651 815.755 445.672 816.641C443.693 817.526 442.026 818.333 440.672 819.062C439.37 819.792 438.302 820.156 437.469 820.156C436.896 820.156 436.375 819.974 435.906 819.609C435.49 819.245 435.125 818.724 434.812 818.047C434.552 817.37 434.344 816.536 434.188 815.547C434.031 814.557 433.953 813.464 433.953 812.266C433.953 810.651 434.083 809.375 434.344 808.438C434.604 807.5 435.099 806.667 435.828 805.938C436.557 805.156 437.833 804.323 439.656 803.438C441.479 802.5 443.615 801.641 446.062 800.859C448.51 800.078 451.167 799.453 454.031 798.984C456.948 798.464 459.943 798.203 463.016 798.203C468.484 798.203 473.146 798.75 477 799.844C480.906 800.885 484.109 802.526 486.609 804.766C489.109 806.953 490.932 809.792 492.078 813.281C493.224 816.771 493.797 820.911 493.797 825.703V872.578ZM474.5 842.734H467C463.823 842.734 461.115 842.969 458.875 843.438C456.635 843.906 454.812 844.609 453.406 845.547C452 846.484 450.958 847.63 450.281 848.984C449.656 850.286 449.344 851.797 449.344 853.516C449.344 856.432 450.255 858.724 452.078 860.391C453.953 862.057 456.531 862.891 459.812 862.891C462.573 862.891 465.099 862.188 467.391 860.781C469.734 859.375 472.104 857.318 474.5 854.609V842.734ZM583.641 836.562C583.641 842.76 582.964 848.333 581.609 853.281C580.255 858.229 578.302 862.448 575.75 865.938C573.198 869.427 570.047 872.109 566.297 873.984C562.599 875.859 558.38 876.797 553.641 876.797C551.297 876.797 549.109 876.562 547.078 876.094C545.047 875.677 543.094 874.974 541.219 873.984C539.396 872.995 537.573 871.745 535.75 870.234C533.979 868.724 532.156 866.901 530.281 864.766V872.344C530.281 872.917 530.125 873.411 529.812 873.828C529.552 874.193 529.083 874.505 528.406 874.766C527.781 875.026 526.922 875.208 525.828 875.312C524.734 875.417 523.406 875.469 521.844 875.469C520.229 875.469 518.875 875.417 517.781 875.312C516.74 875.208 515.88 875.026 515.203 874.766C514.578 874.505 514.135 874.193 513.875 873.828C513.615 873.411 513.484 872.917 513.484 872.344V769.609C513.484 769.089 513.641 768.62 513.953 768.203C514.266 767.786 514.786 767.448 515.516 767.188C516.297 766.875 517.312 766.641 518.562 766.484C519.812 766.328 521.401 766.25 523.328 766.25C525.255 766.25 526.844 766.328 528.094 766.484C529.344 766.641 530.333 766.875 531.062 767.188C531.844 767.448 532.391 767.786 532.703 768.203C533.016 768.62 533.172 769.089 533.172 769.609V808.125C534.943 806.354 536.714 804.844 538.484 803.594C540.255 802.344 542.026 801.328 543.797 800.547C545.568 799.714 547.391 799.115 549.266 798.75C551.141 798.385 553.12 798.203 555.203 798.203C560.359 798.203 564.734 799.245 568.328 801.328C571.922 803.359 574.839 806.12 577.078 809.609C579.37 813.099 581.036 817.188 582.078 821.875C583.12 826.51 583.641 831.406 583.641 836.562ZM563.25 837.969C563.25 835 563.016 832.135 562.547 829.375C562.13 826.615 561.375 824.167 560.281 822.031C559.188 819.896 557.755 818.203 555.984 816.953C554.266 815.651 552.078 815 549.422 815C548.12 815 546.844 815.182 545.594 815.547C544.344 815.911 543.042 816.536 541.688 817.422C540.385 818.307 539.031 819.453 537.625 820.859C536.219 822.266 534.734 824.01 533.172 826.094V849.219C535.932 852.76 538.562 855.469 541.062 857.344C543.615 859.167 546.271 860.078 549.031 860.078C551.583 860.078 553.745 859.427 555.516 858.125C557.286 856.823 558.745 855.13 559.891 853.047C561.089 850.964 561.948 848.594 562.469 845.938C562.99 843.281 563.25 840.625 563.25 837.969Z" fill="#F9AB00"/>
</svg>
