<svg width="804" height="1065" viewBox="0 0 804 1065" fill="none" xmlns="http://www.w3.org/2000/svg">
<rect width="804" height="1065" rx="50" fill="#282C34"/>
<path d="M243.222 334.284C269.638 264.302 337.038 214.443 416.264 214.443C495.49 214.443 562.891 264.302 589.306 334.284C554.038 297.197 489.839 272.295 416.264 272.295C342.69 272.295 278.49 297.197 243.222 334.284ZM416.264 526.817C342.69 526.817 278.49 501.914 243.222 464.828C269.638 534.798 337.038 584.657 416.264 584.657C495.49 584.657 562.891 534.798 589.306 464.817C554.038 501.904 489.839 526.817 416.264 526.817Z" fill="url(#paint0_linear_403_469)"/>
<path d="M585.169 189.878C585.169 206.375 571.798 219.757 555.29 219.757C538.783 219.757 525.412 206.386 525.412 189.878C525.412 173.371 538.794 160 555.29 160C571.787 160 585.169 173.371 585.169 189.878ZM274.45 578.287C254.655 578.287 238.594 594.337 238.594 614.144C238.594 633.939 254.644 650 274.45 650C294.257 650 310.307 633.95 310.307 614.144C310.296 594.337 294.246 578.287 274.45 578.287ZM238.594 207.801C225.397 207.801 214.693 218.505 214.693 231.702C214.693 244.899 225.397 255.602 238.594 255.602C251.791 255.602 262.495 244.899 262.495 231.702C262.495 218.505 251.791 207.801 238.594 207.801Z" fill="url(#paint1_linear_403_469)"/>
<path d="M198.406 839.875C198.406 844.458 197.964 848.599 197.078 852.297C196.245 855.943 194.786 859.068 192.703 861.672C190.672 864.224 187.99 866.177 184.656 867.531C181.323 868.885 177.208 869.562 172.312 869.562C170.75 869.562 169.188 869.432 167.625 869.172C166.115 868.964 164.708 868.677 163.406 868.312C162.156 867.948 161.062 867.557 160.125 867.141C159.188 866.724 158.562 866.359 158.25 866.047C157.938 865.682 157.677 865.318 157.469 864.953C157.26 864.589 157.078 864.12 156.922 863.547C156.766 862.922 156.661 862.167 156.609 861.281C156.557 860.396 156.531 859.276 156.531 857.922C156.531 856.151 156.557 854.667 156.609 853.469C156.714 852.219 156.844 851.255 157 850.578C157.208 849.849 157.469 849.354 157.781 849.094C158.146 848.781 158.589 848.625 159.109 848.625C159.578 848.625 160.125 848.807 160.75 849.172C161.375 849.484 162.078 849.823 162.859 850.188C163.641 850.552 164.552 850.917 165.594 851.281C166.635 851.594 167.859 851.75 169.266 851.75C170.672 851.75 171.896 851.568 172.938 851.203C174.031 850.786 174.917 850.109 175.594 849.172C176.323 848.182 176.87 846.88 177.234 845.266C177.599 843.651 177.781 841.568 177.781 839.016V769.562C177.781 769.042 177.938 768.599 178.25 768.234C178.615 767.818 179.161 767.479 179.891 767.219C180.672 766.958 181.74 766.776 183.094 766.672C184.448 766.516 186.115 766.438 188.094 766.438C190.073 766.438 191.714 766.516 193.016 766.672C194.318 766.776 195.359 766.958 196.141 767.219C196.974 767.479 197.547 767.818 197.859 768.234C198.224 768.599 198.406 769.042 198.406 769.562V839.875ZM285.203 865.344C285.203 865.865 285.073 866.333 284.812 866.75C284.552 867.115 284.083 867.427 283.406 867.688C282.781 867.948 281.922 868.13 280.828 868.234C279.786 868.391 278.458 868.469 276.844 868.469C275.125 868.469 273.719 868.391 272.625 868.234C271.583 868.13 270.75 867.948 270.125 867.688C269.5 867.427 269.057 867.115 268.797 866.75C268.536 866.333 268.406 865.865 268.406 865.344V857.297C264.552 861.464 260.62 864.589 256.609 866.672C252.651 868.755 248.536 869.797 244.266 869.797C239.474 869.797 235.438 869.016 232.156 867.453C228.927 865.891 226.297 863.755 224.266 861.047C222.286 858.339 220.854 855.214 219.969 851.672C219.135 848.078 218.719 843.625 218.719 838.312V795.656C218.719 795.135 218.849 794.693 219.109 794.328C219.422 793.911 219.943 793.573 220.672 793.312C221.453 793.052 222.469 792.87 223.719 792.766C225.021 792.609 226.609 792.531 228.484 792.531C230.411 792.531 232 792.609 233.25 792.766C234.5 792.87 235.49 793.052 236.219 793.312C237 793.573 237.547 793.911 237.859 794.328C238.172 794.693 238.328 795.135 238.328 795.656V835.031C238.328 838.677 238.562 841.464 239.031 843.391C239.5 845.318 240.203 846.984 241.141 848.391C242.13 849.745 243.354 850.812 244.812 851.594C246.323 852.323 248.068 852.688 250.047 852.688C252.547 852.688 255.047 851.776 257.547 849.953C260.099 848.13 262.807 845.474 265.672 841.984V795.656C265.672 795.135 265.802 794.693 266.062 794.328C266.375 793.911 266.896 793.573 267.625 793.312C268.406 793.052 269.422 792.87 270.672 792.766C271.922 792.609 273.51 792.531 275.438 792.531C277.365 792.531 278.953 792.609 280.203 792.766C281.453 792.87 282.443 793.052 283.172 793.312C283.901 793.573 284.422 793.911 284.734 794.328C285.047 794.693 285.203 795.135 285.203 795.656V865.344Z" fill="#9FA7B0"/>
<path d="M375.203 829.484C375.203 835.682 374.526 841.281 373.172 846.281C371.87 851.229 369.943 855.448 367.391 858.938C364.839 862.427 361.661 865.109 357.859 866.984C354.057 868.859 349.708 869.797 344.812 869.797C342.781 869.797 340.906 869.589 339.188 869.172C337.521 868.807 335.88 868.234 334.266 867.453C332.703 866.62 331.141 865.604 329.578 864.406C328.016 863.208 326.401 861.802 324.734 860.188V893C324.734 893.521 324.578 893.99 324.266 894.406C323.953 894.823 323.406 895.161 322.625 895.422C321.896 895.734 320.906 895.969 319.656 896.125C318.406 896.281 316.818 896.359 314.891 896.359C312.964 896.359 311.375 896.281 310.125 896.125C308.875 895.969 307.859 895.734 307.078 895.422C306.349 895.161 305.828 894.823 305.516 894.406C305.203 893.99 305.047 893.521 305.047 893V795.656C305.047 795.135 305.177 794.693 305.438 794.328C305.698 793.911 306.141 793.573 306.766 793.312C307.443 793.052 308.302 792.87 309.344 792.766C310.438 792.609 311.792 792.531 313.406 792.531C314.969 792.531 316.271 792.609 317.312 792.766C318.406 792.87 319.266 793.052 319.891 793.312C320.568 793.573 321.036 793.911 321.297 794.328C321.557 794.693 321.688 795.135 321.688 795.656V803.859C323.719 801.776 325.698 799.953 327.625 798.391C329.604 796.776 331.609 795.448 333.641 794.406C335.672 793.312 337.755 792.505 339.891 791.984C342.078 791.464 344.396 791.203 346.844 791.203C351.948 791.203 356.297 792.219 359.891 794.25C363.484 796.229 366.401 798.964 368.641 802.453C370.932 805.943 372.599 810.005 373.641 814.641C374.682 819.276 375.203 824.224 375.203 829.484ZM354.734 830.891C354.734 827.922 354.5 825.083 354.031 822.375C353.615 819.615 352.859 817.167 351.766 815.031C350.724 812.896 349.318 811.203 347.547 809.953C345.828 808.651 343.667 808 341.062 808C339.76 808 338.458 808.208 337.156 808.625C335.906 808.99 334.604 809.615 333.25 810.5C331.948 811.385 330.594 812.531 329.188 813.938C327.781 815.344 326.297 817.089 324.734 819.172V842.141C327.495 845.63 330.125 848.339 332.625 850.266C335.125 852.141 337.729 853.078 340.438 853.078C342.99 853.078 345.151 852.427 346.922 851.125C348.745 849.823 350.229 848.13 351.375 846.047C352.521 843.911 353.354 841.516 353.875 838.859C354.448 836.203 354.734 833.547 354.734 830.891ZM430.438 868L422 892.688C421.531 893.99 420.255 894.927 418.172 895.5C416.089 896.073 413.042 896.359 409.031 896.359C406.948 896.359 405.281 896.255 404.031 896.047C402.781 895.891 401.844 895.604 401.219 895.188C400.594 894.771 400.255 894.25 400.203 893.625C400.151 893 400.307 892.245 400.672 891.359L409.969 868C409.292 867.688 408.667 867.219 408.094 866.594C407.573 865.917 407.182 865.214 406.922 864.484L382.938 800.422C382.26 798.599 381.922 797.219 381.922 796.281C381.922 795.292 382.234 794.536 382.859 794.016C383.484 793.443 384.526 793.052 385.984 792.844C387.495 792.635 389.474 792.531 391.922 792.531C394.161 792.531 395.932 792.583 397.234 792.688C398.536 792.74 399.552 792.922 400.281 793.234C401.01 793.547 401.557 794.042 401.922 794.719C402.286 795.344 402.651 796.255 403.016 797.453L419.422 844.094H419.656L434.656 796.516C434.969 795.161 435.359 794.276 435.828 793.859C436.349 793.391 437.182 793.052 438.328 792.844C439.474 792.635 441.479 792.531 444.344 792.531C446.583 792.531 448.432 792.635 449.891 792.844C451.401 793.052 452.495 793.443 453.172 794.016C453.901 794.589 454.266 795.37 454.266 796.359C454.266 797.297 454.057 798.417 453.641 799.719L430.438 868ZM507.859 858.469C507.859 860.76 507.703 862.531 507.391 863.781C507.13 864.979 506.766 865.839 506.297 866.359C505.828 866.828 505.125 867.271 504.188 867.688C503.302 868.052 502.234 868.365 500.984 868.625C499.786 868.938 498.458 869.172 497 869.328C495.594 869.484 494.161 869.562 492.703 869.562C488.797 869.562 485.411 869.068 482.547 868.078C479.682 867.089 477.312 865.578 475.438 863.547C473.562 861.464 472.182 858.859 471.297 855.734C470.411 852.609 469.969 848.911 469.969 844.641V808.938H461.609C460.62 808.938 459.865 808.339 459.344 807.141C458.823 805.891 458.562 803.833 458.562 800.969C458.562 799.458 458.615 798.182 458.719 797.141C458.875 796.099 459.083 795.292 459.344 794.719C459.604 794.094 459.917 793.651 460.281 793.391C460.698 793.13 461.167 793 461.688 793H469.969V777.453C469.969 776.932 470.099 776.464 470.359 776.047C470.672 775.63 471.193 775.292 471.922 775.031C472.703 774.719 473.719 774.51 474.969 774.406C476.271 774.25 477.859 774.172 479.734 774.172C481.661 774.172 483.25 774.25 484.5 774.406C485.802 774.51 486.818 774.719 487.547 775.031C488.276 775.292 488.797 775.63 489.109 776.047C489.422 776.464 489.578 776.932 489.578 777.453V793H504.734C505.255 793 505.698 793.13 506.062 793.391C506.479 793.651 506.818 794.094 507.078 794.719C507.339 795.292 507.521 796.099 507.625 797.141C507.781 798.182 507.859 799.458 507.859 800.969C507.859 803.833 507.599 805.891 507.078 807.141C506.557 808.339 505.802 808.938 504.812 808.938H489.578V841.672C489.578 845.474 490.177 848.339 491.375 850.266C492.573 852.141 494.708 853.078 497.781 853.078C498.823 853.078 499.76 853 500.594 852.844C501.427 852.635 502.156 852.427 502.781 852.219C503.458 851.958 504.005 851.75 504.422 851.594C504.891 851.385 505.307 851.281 505.672 851.281C505.984 851.281 506.271 851.385 506.531 851.594C506.844 851.75 507.078 852.115 507.234 852.688C507.391 853.208 507.521 853.938 507.625 854.875C507.781 855.812 507.859 857.01 507.859 858.469ZM584.422 828.469C584.422 830.865 583.875 832.635 582.781 833.781C581.74 834.927 580.281 835.5 578.406 835.5H535.984C535.984 838.469 536.323 841.177 537 843.625C537.729 846.021 538.849 848.078 540.359 849.797C541.922 851.464 543.901 852.74 546.297 853.625C548.745 854.51 551.661 854.953 555.047 854.953C558.484 854.953 561.505 854.719 564.109 854.25C566.714 853.729 568.953 853.182 570.828 852.609C572.755 851.984 574.344 851.438 575.594 850.969C576.844 850.448 577.859 850.188 578.641 850.188C579.109 850.188 579.5 850.292 579.812 850.5C580.125 850.656 580.385 850.969 580.594 851.438C580.802 851.906 580.932 852.583 580.984 853.469C581.089 854.302 581.141 855.37 581.141 856.672C581.141 857.818 581.115 858.807 581.062 859.641C581.01 860.422 580.932 861.099 580.828 861.672C580.724 862.245 580.568 862.74 580.359 863.156C580.151 863.521 579.865 863.885 579.5 864.25C579.188 864.615 578.276 865.109 576.766 865.734C575.255 866.359 573.328 866.984 570.984 867.609C568.641 868.182 565.958 868.677 562.938 869.094C559.917 869.562 556.688 869.797 553.25 869.797C547.052 869.797 541.609 869.016 536.922 867.453C532.286 865.891 528.406 863.521 525.281 860.344C522.156 857.167 519.812 853.156 518.25 848.312C516.74 843.469 515.984 837.792 515.984 831.281C515.984 825.083 516.792 819.51 518.406 814.562C520.021 809.562 522.365 805.344 525.438 801.906C528.51 798.417 532.234 795.76 536.609 793.938C541.036 792.115 546.01 791.203 551.531 791.203C557.365 791.203 562.339 792.062 566.453 793.781C570.62 795.5 574.031 797.896 576.688 800.969C579.344 803.99 581.297 807.583 582.547 811.75C583.797 815.917 584.422 820.448 584.422 825.344V828.469ZM565.359 822.844C565.516 817.323 564.396 813 562 809.875C559.656 806.698 556.01 805.109 551.062 805.109C548.562 805.109 546.375 805.578 544.5 806.516C542.677 807.453 541.141 808.729 539.891 810.344C538.693 811.906 537.755 813.781 537.078 815.969C536.453 818.104 536.089 820.396 535.984 822.844H565.359ZM645.438 802.141C645.438 804.016 645.385 805.552 645.281 806.75C645.177 807.948 645.021 808.885 644.812 809.562C644.604 810.24 644.318 810.708 643.953 810.969C643.641 811.229 643.224 811.359 642.703 811.359C642.286 811.359 641.818 811.281 641.297 811.125C640.776 810.917 640.177 810.708 639.5 810.5C638.875 810.292 638.172 810.109 637.391 809.953C636.609 809.745 635.75 809.641 634.812 809.641C633.719 809.641 632.625 809.875 631.531 810.344C630.438 810.76 629.292 811.438 628.094 812.375C626.948 813.312 625.724 814.562 624.422 816.125C623.172 817.688 621.818 819.615 620.359 821.906V865.344C620.359 865.865 620.203 866.333 619.891 866.75C619.578 867.115 619.031 867.427 618.25 867.688C617.521 867.948 616.531 868.13 615.281 868.234C614.031 868.391 612.443 868.469 610.516 868.469C608.589 868.469 607 868.391 605.75 868.234C604.5 868.13 603.484 867.948 602.703 867.688C601.974 867.427 601.453 867.115 601.141 866.75C600.828 866.333 600.672 865.865 600.672 865.344V795.656C600.672 795.135 600.802 794.693 601.062 794.328C601.323 793.911 601.792 793.573 602.469 793.312C603.146 793.052 604.005 792.87 605.047 792.766C606.141 792.609 607.495 792.531 609.109 792.531C610.776 792.531 612.156 792.609 613.25 792.766C614.344 792.87 615.177 793.052 615.75 793.312C616.375 793.573 616.818 793.911 617.078 794.328C617.339 794.693 617.469 795.135 617.469 795.656V804.328C619.292 801.724 621.01 799.589 622.625 797.922C624.24 796.203 625.776 794.849 627.234 793.859C628.693 792.87 630.151 792.193 631.609 791.828C633.068 791.411 634.526 791.203 635.984 791.203C636.661 791.203 637.391 791.255 638.172 791.359C638.953 791.411 639.76 791.542 640.594 791.75C641.427 791.906 642.156 792.115 642.781 792.375C643.406 792.583 643.849 792.818 644.109 793.078C644.422 793.339 644.63 793.625 644.734 793.938C644.891 794.25 645.021 794.693 645.125 795.266C645.229 795.786 645.307 796.594 645.359 797.688C645.411 798.781 645.438 800.266 645.438 802.141Z" fill="#ED8A01"/>
<defs>
<linearGradient id="paint0_linear_403_469" x1="321.276" y1="181.589" x2="530.697" y2="569.233" gradientUnits="userSpaceOnUse">
<stop stop-color="#F09701"/>
<stop offset="1" stop-color="#E36001"/>
</linearGradient>
<linearGradient id="paint1_linear_403_469" x1="169.299" y1="624.412" x2="434.459" y2="149.754" gradientUnits="userSpaceOnUse">
<stop stop-color="#A1AAB3"/>
<stop offset="1" stop-color="#8F979E"/>
</linearGradient>
</defs>
</svg>
