<svg width="804" height="1065" viewBox="0 0 804 1065" fill="none" xmlns="http://www.w3.org/2000/svg">
<rect width="804" height="1065" rx="50" fill="#282C34"/>
<path d="M220.824 604.109C220.824 604.698 221.166 605.517 221.574 605.926L234.856 619.233C235.272 619.65 236.09 619.985 236.669 619.985H282.118C282.705 619.985 283.522 619.643 283.931 619.233L297.213 605.926C297.629 605.509 297.963 604.69 297.963 604.109V459.627C297.963 459.039 298.312 458.227 298.736 457.825L356.477 402.573C356.901 402.171 357.518 402.231 357.845 402.722L503.733 619.114C504.06 619.598 504.811 620 505.39 620H569.776C570.363 620 571.062 619.576 571.329 619.054L583.013 596.373C583.28 595.851 583.228 595.032 582.894 594.548L412.249 346.733C411.915 346.249 411.982 345.519 412.398 345.102L569.352 188.587C569.769 188.17 570.103 187.358 570.103 186.77V183.881C570.103 183.292 569.91 182.376 569.679 181.833L560.627 160.975C560.396 160.439 559.72 160 559.14 160H495.498C494.911 160 494.093 160.343 493.684 160.752L298.729 356.815C298.313 357.232 297.978 357.091 297.978 356.502V176.635C297.978 176.047 297.651 175.22 297.25 174.789L284.221 160.789C283.82 160.357 283.017 160.007 282.43 160.007H236.669C236.082 160.007 235.279 160.357 234.878 160.789L221.537 175.22C221.136 175.652 220.816 176.479 220.816 177.067V604.109H220.824Z" fill="#F82929"/>
<path d="M305.844 874.953C305.844 875.526 305.688 876.047 305.375 876.516C305.115 876.932 304.568 877.297 303.734 877.609C302.953 877.87 301.859 878.078 300.453 878.234C299.047 878.391 297.276 878.469 295.141 878.469C291.755 878.469 289.307 878.339 287.797 878.078C286.339 877.818 285.271 877.427 284.594 876.906C283.969 876.385 283.474 875.76 283.109 875.031L252.562 827.062V875.031C252.562 875.604 252.406 876.099 252.094 876.516C251.781 876.932 251.234 877.297 250.453 877.609C249.672 877.87 248.63 878.078 247.328 878.234C246.026 878.391 244.359 878.469 242.328 878.469C240.349 878.469 238.682 878.391 237.328 878.234C236.026 878.078 234.984 877.87 234.203 877.609C233.422 877.297 232.849 876.932 232.484 876.516C232.172 876.099 232.016 875.604 232.016 875.031V779.797C232.016 779.224 232.172 778.729 232.484 778.312C232.849 777.896 233.422 777.557 234.203 777.297C234.984 777.036 236.026 776.828 237.328 776.672C238.682 776.516 240.349 776.438 242.328 776.438C244.359 776.438 246.026 776.516 247.328 776.672C248.63 776.828 249.672 777.036 250.453 777.297C251.234 777.557 251.781 777.896 252.094 778.312C252.406 778.729 252.562 779.224 252.562 779.797V822.844L282.172 779.875C282.536 779.198 282.979 778.651 283.5 778.234C284.021 777.766 284.698 777.401 285.531 777.141C286.365 776.88 287.432 776.698 288.734 776.594C290.036 776.49 291.703 776.438 293.734 776.438C295.818 776.438 297.536 776.516 298.891 776.672C300.245 776.828 301.312 777.062 302.094 777.375C302.927 777.635 303.5 777.974 303.812 778.391C304.125 778.807 304.281 779.276 304.281 779.797C304.281 780.682 304.047 781.594 303.578 782.531C303.109 783.469 302.224 784.953 300.922 786.984L273.188 823.312L303.422 869.016C304.568 871.151 305.245 872.583 305.453 873.312C305.714 873.99 305.844 874.536 305.844 874.953ZM379.75 838.469C379.75 840.865 379.203 842.635 378.109 843.781C377.068 844.927 375.609 845.5 373.734 845.5H331.312C331.312 848.469 331.651 851.177 332.328 853.625C333.057 856.021 334.177 858.078 335.688 859.797C337.25 861.464 339.229 862.74 341.625 863.625C344.073 864.51 346.99 864.953 350.375 864.953C353.812 864.953 356.833 864.719 359.438 864.25C362.042 863.729 364.281 863.182 366.156 862.609C368.083 861.984 369.672 861.438 370.922 860.969C372.172 860.448 373.188 860.188 373.969 860.188C374.438 860.188 374.828 860.292 375.141 860.5C375.453 860.656 375.714 860.969 375.922 861.438C376.13 861.906 376.26 862.583 376.312 863.469C376.417 864.302 376.469 865.37 376.469 866.672C376.469 867.818 376.443 868.807 376.391 869.641C376.339 870.422 376.26 871.099 376.156 871.672C376.052 872.245 375.896 872.74 375.688 873.156C375.479 873.521 375.193 873.885 374.828 874.25C374.516 874.615 373.604 875.109 372.094 875.734C370.583 876.359 368.656 876.984 366.312 877.609C363.969 878.182 361.286 878.677 358.266 879.094C355.245 879.562 352.016 879.797 348.578 879.797C342.38 879.797 336.938 879.016 332.25 877.453C327.615 875.891 323.734 873.521 320.609 870.344C317.484 867.167 315.141 863.156 313.578 858.312C312.068 853.469 311.312 847.792 311.312 841.281C311.312 835.083 312.12 829.51 313.734 824.562C315.349 819.562 317.693 815.344 320.766 811.906C323.839 808.417 327.562 805.76 331.938 803.938C336.365 802.115 341.339 801.203 346.859 801.203C352.693 801.203 357.667 802.062 361.781 803.781C365.948 805.5 369.359 807.896 372.016 810.969C374.672 813.99 376.625 817.583 377.875 821.75C379.125 825.917 379.75 830.448 379.75 835.344V838.469ZM360.688 832.844C360.844 827.323 359.724 823 357.328 819.875C354.984 816.698 351.339 815.109 346.391 815.109C343.891 815.109 341.703 815.578 339.828 816.516C338.005 817.453 336.469 818.729 335.219 820.344C334.021 821.906 333.083 823.781 332.406 825.969C331.781 828.104 331.417 830.396 331.312 832.844H360.688ZM440.766 812.141C440.766 814.016 440.714 815.552 440.609 816.75C440.505 817.948 440.349 818.885 440.141 819.562C439.932 820.24 439.646 820.708 439.281 820.969C438.969 821.229 438.552 821.359 438.031 821.359C437.615 821.359 437.146 821.281 436.625 821.125C436.104 820.917 435.505 820.708 434.828 820.5C434.203 820.292 433.5 820.109 432.719 819.953C431.938 819.745 431.078 819.641 430.141 819.641C429.047 819.641 427.953 819.875 426.859 820.344C425.766 820.76 424.62 821.438 423.422 822.375C422.276 823.312 421.052 824.562 419.75 826.125C418.5 827.688 417.146 829.615 415.688 831.906V875.344C415.688 875.865 415.531 876.333 415.219 876.75C414.906 877.115 414.359 877.427 413.578 877.688C412.849 877.948 411.859 878.13 410.609 878.234C409.359 878.391 407.771 878.469 405.844 878.469C403.917 878.469 402.328 878.391 401.078 878.234C399.828 878.13 398.812 877.948 398.031 877.688C397.302 877.427 396.781 877.115 396.469 876.75C396.156 876.333 396 875.865 396 875.344V805.656C396 805.135 396.13 804.693 396.391 804.328C396.651 803.911 397.12 803.573 397.797 803.312C398.474 803.052 399.333 802.87 400.375 802.766C401.469 802.609 402.823 802.531 404.438 802.531C406.104 802.531 407.484 802.609 408.578 802.766C409.672 802.87 410.505 803.052 411.078 803.312C411.703 803.573 412.146 803.911 412.406 804.328C412.667 804.693 412.797 805.135 412.797 805.656V814.328C414.62 811.724 416.339 809.589 417.953 807.922C419.568 806.203 421.104 804.849 422.562 803.859C424.021 802.87 425.479 802.193 426.938 801.828C428.396 801.411 429.854 801.203 431.312 801.203C431.99 801.203 432.719 801.255 433.5 801.359C434.281 801.411 435.089 801.542 435.922 801.75C436.755 801.906 437.484 802.115 438.109 802.375C438.734 802.583 439.177 802.818 439.438 803.078C439.75 803.339 439.958 803.625 440.062 803.938C440.219 804.25 440.349 804.693 440.453 805.266C440.557 805.786 440.635 806.594 440.688 807.688C440.74 808.781 440.766 810.266 440.766 812.141ZM508.656 875.578C508.656 876.307 508.396 876.88 507.875 877.297C507.354 877.714 506.521 878 505.375 878.156C504.281 878.365 502.641 878.469 500.453 878.469C498.109 878.469 496.391 878.365 495.297 878.156C494.255 878 493.5 877.714 493.031 877.297C492.615 876.88 492.406 876.307 492.406 875.578V870.031C489.542 873.104 486.26 875.5 482.562 877.219C478.917 878.938 474.854 879.797 470.375 879.797C466.677 879.797 463.266 879.302 460.141 878.312C457.068 877.375 454.385 875.969 452.094 874.094C449.854 872.167 448.109 869.797 446.859 866.984C445.609 864.172 444.984 860.891 444.984 857.141C444.984 853.078 445.766 849.562 447.328 846.594C448.943 843.573 451.312 841.099 454.438 839.172C457.615 837.193 461.547 835.734 466.234 834.797C470.922 833.859 476.365 833.391 482.562 833.391H489.359V829.172C489.359 826.984 489.125 825.083 488.656 823.469C488.24 821.802 487.51 820.422 486.469 819.328C485.479 818.234 484.125 817.427 482.406 816.906C480.74 816.385 478.656 816.125 476.156 816.125C472.875 816.125 469.932 816.49 467.328 817.219C464.776 817.948 462.51 818.755 460.531 819.641C458.552 820.526 456.885 821.333 455.531 822.062C454.229 822.792 453.161 823.156 452.328 823.156C451.755 823.156 451.234 822.974 450.766 822.609C450.349 822.245 449.984 821.724 449.672 821.047C449.411 820.37 449.203 819.536 449.047 818.547C448.891 817.557 448.812 816.464 448.812 815.266C448.812 813.651 448.943 812.375 449.203 811.438C449.464 810.5 449.958 809.667 450.688 808.938C451.417 808.156 452.693 807.323 454.516 806.438C456.339 805.5 458.474 804.641 460.922 803.859C463.37 803.078 466.026 802.453 468.891 801.984C471.807 801.464 474.802 801.203 477.875 801.203C483.344 801.203 488.005 801.75 491.859 802.844C495.766 803.885 498.969 805.526 501.469 807.766C503.969 809.953 505.792 812.792 506.938 816.281C508.083 819.771 508.656 823.911 508.656 828.703V875.578ZM489.359 845.734H481.859C478.682 845.734 475.974 845.969 473.734 846.438C471.495 846.906 469.672 847.609 468.266 848.547C466.859 849.484 465.818 850.63 465.141 851.984C464.516 853.286 464.203 854.797 464.203 856.516C464.203 859.432 465.115 861.724 466.938 863.391C468.812 865.057 471.391 865.891 474.672 865.891C477.432 865.891 479.958 865.188 482.25 863.781C484.594 862.375 486.964 860.318 489.359 857.609V845.734ZM577.406 855.656C577.406 859.615 576.651 863.104 575.141 866.125C573.682 869.146 571.599 871.672 568.891 873.703C566.182 875.734 562.979 877.245 559.281 878.234C555.583 879.276 551.573 879.797 547.25 879.797C544.646 879.797 542.146 879.589 539.75 879.172C537.406 878.807 535.297 878.339 533.422 877.766C531.547 877.141 529.984 876.516 528.734 875.891C527.484 875.266 526.573 874.693 526 874.172C525.427 873.599 524.984 872.74 524.672 871.594C524.359 870.396 524.203 868.651 524.203 866.359C524.203 864.849 524.255 863.651 524.359 862.766C524.464 861.828 524.62 861.099 524.828 860.578C525.036 860.005 525.297 859.641 525.609 859.484C525.922 859.276 526.312 859.172 526.781 859.172C527.354 859.172 528.188 859.51 529.281 860.188C530.427 860.812 531.833 861.516 533.5 862.297C535.167 863.078 537.094 863.807 539.281 864.484C541.521 865.161 544.047 865.5 546.859 865.5C548.63 865.5 550.193 865.318 551.547 864.953C552.953 864.589 554.151 864.068 555.141 863.391C556.182 862.714 556.964 861.854 557.484 860.812C558.005 859.771 558.266 858.573 558.266 857.219C558.266 855.656 557.771 854.328 556.781 853.234C555.844 852.089 554.568 851.099 552.953 850.266C551.391 849.432 549.594 848.651 547.562 847.922C545.583 847.193 543.526 846.385 541.391 845.5C539.307 844.615 537.25 843.599 535.219 842.453C533.24 841.307 531.443 839.901 529.828 838.234C528.266 836.568 526.99 834.562 526 832.219C525.062 829.875 524.594 827.062 524.594 823.781C524.594 820.448 525.245 817.401 526.547 814.641C527.849 811.828 529.724 809.432 532.172 807.453C534.62 805.474 537.589 803.938 541.078 802.844C544.62 801.75 548.578 801.203 552.953 801.203C555.141 801.203 557.25 801.359 559.281 801.672C561.365 801.984 563.24 802.375 564.906 802.844C566.573 803.312 567.979 803.833 569.125 804.406C570.271 804.927 571.078 805.396 571.547 805.812C572.068 806.177 572.432 806.568 572.641 806.984C572.849 807.349 573.005 807.818 573.109 808.391C573.214 808.911 573.292 809.589 573.344 810.422C573.448 811.203 573.5 812.193 573.5 813.391C573.5 814.797 573.448 815.943 573.344 816.828C573.292 817.714 573.161 818.417 572.953 818.938C572.797 819.458 572.562 819.823 572.25 820.031C571.938 820.188 571.573 820.266 571.156 820.266C570.688 820.266 569.958 820.005 568.969 819.484C567.979 818.911 566.729 818.312 565.219 817.688C563.76 817.062 562.042 816.49 560.062 815.969C558.135 815.396 555.922 815.109 553.422 815.109C551.651 815.109 550.115 815.292 548.812 815.656C547.51 816.021 546.443 816.542 545.609 817.219C544.776 817.896 544.151 818.703 543.734 819.641C543.318 820.526 543.109 821.49 543.109 822.531C543.109 824.146 543.604 825.5 544.594 826.594C545.583 827.688 546.885 828.651 548.5 829.484C550.115 830.318 551.938 831.099 553.969 831.828C556.052 832.557 558.135 833.365 560.219 834.25C562.354 835.083 564.438 836.073 566.469 837.219C568.552 838.365 570.401 839.771 572.016 841.438C573.63 843.104 574.932 845.109 575.922 847.453C576.911 849.745 577.406 852.479 577.406 855.656Z" fill="#F82929"/>
</svg>
