<svg width="804" height="1065" viewBox="0 0 804 1065" fill="none" xmlns="http://www.w3.org/2000/svg">
<rect width="804" height="1065" rx="50" fill="#282C34"/>
<path d="M399.118 160.004C379.161 160.097 360.102 161.801 343.332 164.773C293.93 173.512 284.961 191.804 284.961 225.538V270.09H401.703V284.941H241.148C207.22 284.941 177.511 305.362 168.218 344.208C157.5 388.735 157.024 416.521 168.218 463.014C176.517 497.622 196.335 522.281 230.263 522.281H270.402V468.873C270.402 430.288 303.742 396.254 343.332 396.254H459.939C492.398 396.254 518.31 369.492 518.31 336.851V225.538C518.31 193.858 491.62 170.06 459.939 164.773C439.884 161.43 419.076 159.911 399.118 160.004ZM335.985 195.837C348.043 195.837 357.891 205.858 357.891 218.181C357.891 230.46 348.043 240.389 335.985 240.389C323.883 240.389 314.078 230.46 314.078 218.181C314.078 205.858 323.883 195.837 335.985 195.837Z" fill="#0177BD"/>
<path d="M532.869 284.941V336.85C532.869 377.095 498.794 410.968 459.938 410.968H343.332C311.392 410.968 284.961 438.341 284.961 470.371V581.684C284.961 613.364 312.472 631.998 343.332 641.087C380.286 651.967 415.723 653.934 459.938 641.087C489.329 632.566 518.31 615.418 518.31 581.684V537.132H401.703V522.281H576.681C610.61 522.281 623.253 498.583 635.052 463.014C647.241 426.396 646.722 391.182 635.052 344.208C626.667 310.386 610.653 284.941 576.681 284.941H532.869ZM467.286 566.833C479.388 566.833 489.192 576.762 489.192 589.041C489.192 601.364 479.388 611.385 467.286 611.385C455.227 611.385 445.38 601.364 445.38 589.041C445.38 576.762 455.227 566.833 467.286 566.833Z" fill="#FEC208"/>
<path d="M244.234 807.609C244.234 813.286 243.349 818.312 241.578 822.688C239.807 827.062 237.229 830.76 233.844 833.781C230.458 836.75 226.292 839.016 221.344 840.578C216.448 842.141 210.667 842.922 204 842.922H195.562V875.188C195.562 875.708 195.38 876.177 195.016 876.594C194.703 877.01 194.156 877.349 193.375 877.609C192.594 877.87 191.552 878.078 190.25 878.234C188.948 878.391 187.281 878.469 185.25 878.469C183.271 878.469 181.604 878.391 180.25 878.234C178.948 878.078 177.906 877.87 177.125 877.609C176.344 877.349 175.797 877.01 175.484 876.594C175.172 876.177 175.016 875.708 175.016 875.188V784.25C175.016 781.802 175.641 779.979 176.891 778.781C178.193 777.531 179.885 776.906 181.969 776.906H205.797C208.193 776.906 210.458 777.01 212.594 777.219C214.781 777.375 217.385 777.766 220.406 778.391C223.427 778.964 226.474 780.057 229.547 781.672C232.672 783.286 235.328 785.344 237.516 787.844C239.703 790.292 241.37 793.182 242.516 796.516C243.661 799.797 244.234 803.495 244.234 807.609ZM222.75 809.094C222.75 805.552 222.125 802.635 220.875 800.344C219.625 798.052 218.089 796.359 216.266 795.266C214.443 794.172 212.516 793.495 210.484 793.234C208.505 792.922 206.448 792.766 204.312 792.766H195.562V827.062H204.781C208.062 827.062 210.797 826.62 212.984 825.734C215.224 824.849 217.047 823.625 218.453 822.062C219.859 820.448 220.927 818.547 221.656 816.359C222.385 814.12 222.75 811.698 222.75 809.094ZM300.641 878L292.203 902.688C291.734 903.99 290.458 904.927 288.375 905.5C286.292 906.073 283.245 906.359 279.234 906.359C277.151 906.359 275.484 906.255 274.234 906.047C272.984 905.891 272.047 905.604 271.422 905.188C270.797 904.771 270.458 904.25 270.406 903.625C270.354 903 270.51 902.245 270.875 901.359L280.172 878C279.495 877.688 278.87 877.219 278.297 876.594C277.776 875.917 277.385 875.214 277.125 874.484L253.141 810.422C252.464 808.599 252.125 807.219 252.125 806.281C252.125 805.292 252.438 804.536 253.062 804.016C253.688 803.443 254.729 803.052 256.188 802.844C257.698 802.635 259.677 802.531 262.125 802.531C264.365 802.531 266.135 802.583 267.438 802.688C268.74 802.74 269.755 802.922 270.484 803.234C271.214 803.547 271.76 804.042 272.125 804.719C272.49 805.344 272.854 806.255 273.219 807.453L289.625 854.094H289.859L304.859 806.516C305.172 805.161 305.562 804.276 306.031 803.859C306.552 803.391 307.385 803.052 308.531 802.844C309.677 802.635 311.682 802.531 314.547 802.531C316.786 802.531 318.635 802.635 320.094 802.844C321.604 803.052 322.698 803.443 323.375 804.016C324.104 804.589 324.469 805.37 324.469 806.359C324.469 807.297 324.26 808.417 323.844 809.719L300.641 878Z" fill="#0177BD"/>
<path d="M377.281 868.469C377.281 870.76 377.125 872.531 376.812 873.781C376.552 874.979 376.188 875.839 375.719 876.359C375.25 876.828 374.547 877.271 373.609 877.688C372.724 878.052 371.656 878.365 370.406 878.625C369.208 878.938 367.88 879.172 366.422 879.328C365.016 879.484 363.583 879.562 362.125 879.562C358.219 879.562 354.833 879.068 351.969 878.078C349.104 877.089 346.734 875.578 344.859 873.547C342.984 871.464 341.604 868.859 340.719 865.734C339.833 862.609 339.391 858.911 339.391 854.641V818.938H331.031C330.042 818.938 329.286 818.339 328.766 817.141C328.245 815.891 327.984 813.833 327.984 810.969C327.984 809.458 328.036 808.182 328.141 807.141C328.297 806.099 328.505 805.292 328.766 804.719C329.026 804.094 329.339 803.651 329.703 803.391C330.12 803.13 330.589 803 331.109 803H339.391V787.453C339.391 786.932 339.521 786.464 339.781 786.047C340.094 785.63 340.615 785.292 341.344 785.031C342.125 784.719 343.141 784.51 344.391 784.406C345.693 784.25 347.281 784.172 349.156 784.172C351.083 784.172 352.672 784.25 353.922 784.406C355.224 784.51 356.24 784.719 356.969 785.031C357.698 785.292 358.219 785.63 358.531 786.047C358.844 786.464 359 786.932 359 787.453V803H374.156C374.677 803 375.12 803.13 375.484 803.391C375.901 803.651 376.24 804.094 376.5 804.719C376.76 805.292 376.943 806.099 377.047 807.141C377.203 808.182 377.281 809.458 377.281 810.969C377.281 813.833 377.021 815.891 376.5 817.141C375.979 818.339 375.224 818.938 374.234 818.938H359V851.672C359 855.474 359.599 858.339 360.797 860.266C361.995 862.141 364.13 863.078 367.203 863.078C368.245 863.078 369.182 863 370.016 862.844C370.849 862.635 371.578 862.427 372.203 862.219C372.88 861.958 373.427 861.75 373.844 861.594C374.312 861.385 374.729 861.281 375.094 861.281C375.406 861.281 375.693 861.385 375.953 861.594C376.266 861.75 376.5 862.115 376.656 862.688C376.812 863.208 376.943 863.938 377.047 864.875C377.203 865.812 377.281 867.01 377.281 868.469ZM458.062 875.344C458.062 875.865 457.906 876.333 457.594 876.75C457.281 877.115 456.76 877.427 456.031 877.688C455.302 877.948 454.286 878.13 452.984 878.234C451.734 878.391 450.172 878.469 448.297 878.469C446.37 878.469 444.755 878.391 443.453 878.234C442.203 878.13 441.214 877.948 440.484 877.688C439.755 877.427 439.234 877.115 438.922 876.75C438.609 876.333 438.453 875.865 438.453 875.344V835.578C438.453 832.193 438.193 829.536 437.672 827.609C437.203 825.682 436.5 824.042 435.562 822.688C434.625 821.281 433.401 820.214 431.891 819.484C430.432 818.703 428.714 818.312 426.734 818.312C424.234 818.312 421.708 819.224 419.156 821.047C416.604 822.87 413.948 825.526 411.188 829.016V875.344C411.188 875.865 411.031 876.333 410.719 876.75C410.406 877.115 409.859 877.427 409.078 877.688C408.349 877.948 407.359 878.13 406.109 878.234C404.859 878.391 403.271 878.469 401.344 878.469C399.417 878.469 397.828 878.391 396.578 878.234C395.328 878.13 394.312 877.948 393.531 877.688C392.802 877.427 392.281 877.115 391.969 876.75C391.656 876.333 391.5 875.865 391.5 875.344V772.609C391.5 772.089 391.656 771.62 391.969 771.203C392.281 770.786 392.802 770.448 393.531 770.188C394.312 769.875 395.328 769.641 396.578 769.484C397.828 769.328 399.417 769.25 401.344 769.25C403.271 769.25 404.859 769.328 406.109 769.484C407.359 769.641 408.349 769.875 409.078 770.188C409.859 770.448 410.406 770.786 410.719 771.203C411.031 771.62 411.188 772.089 411.188 772.609V811.125C414.573 807.792 418.01 805.318 421.5 803.703C425.042 802.036 428.714 801.203 432.516 801.203C437.255 801.203 441.24 801.984 444.469 803.547C447.75 805.109 450.38 807.245 452.359 809.953C454.391 812.661 455.849 815.839 456.734 819.484C457.62 823.078 458.062 827.453 458.062 832.609V875.344ZM547.906 839.797C547.906 845.734 547.125 851.151 545.562 856.047C544 860.943 541.63 865.161 538.453 868.703C535.276 872.245 531.292 874.979 526.5 876.906C521.708 878.833 516.109 879.797 509.703 879.797C503.505 879.797 498.115 878.938 493.531 877.219C488.948 875.5 485.146 873 482.125 869.719C479.104 866.438 476.865 862.401 475.406 857.609C473.948 852.818 473.219 847.349 473.219 841.203C473.219 835.266 474 829.849 475.562 824.953C477.177 820.005 479.573 815.786 482.75 812.297C485.927 808.755 489.885 806.021 494.625 804.094C499.417 802.167 505.016 801.203 511.422 801.203C517.672 801.203 523.089 802.062 527.672 803.781C532.255 805.448 536.031 807.922 539 811.203C542.021 814.484 544.26 818.521 545.719 823.312C547.177 828.104 547.906 833.599 547.906 839.797ZM527.672 840.578C527.672 837.141 527.385 833.99 526.812 831.125C526.292 828.208 525.38 825.682 524.078 823.547C522.776 821.411 521.031 819.745 518.844 818.547C516.708 817.349 514 816.75 510.719 816.75C507.802 816.75 505.25 817.297 503.062 818.391C500.875 819.432 499.078 820.995 497.672 823.078C496.266 825.109 495.198 827.583 494.469 830.5C493.792 833.365 493.453 836.646 493.453 840.344C493.453 843.781 493.74 846.958 494.312 849.875C494.885 852.74 495.797 855.24 497.047 857.375C498.349 859.51 500.094 861.177 502.281 862.375C504.469 863.521 507.177 864.094 510.406 864.094C513.375 864.094 515.953 863.573 518.141 862.531C520.328 861.438 522.125 859.875 523.531 857.844C524.938 855.812 525.979 853.365 526.656 850.5C527.333 847.583 527.672 844.276 527.672 840.578ZM630.094 875.344C630.094 875.865 629.938 876.333 629.625 876.75C629.312 877.115 628.792 877.427 628.062 877.688C627.333 877.948 626.318 878.13 625.016 878.234C623.766 878.391 622.203 878.469 620.328 878.469C618.401 878.469 616.786 878.391 615.484 878.234C614.234 878.13 613.245 877.948 612.516 877.688C611.786 877.427 611.266 877.115 610.953 876.75C610.641 876.333 610.484 875.865 610.484 875.344V835.578C610.484 832.193 610.224 829.536 609.703 827.609C609.234 825.682 608.531 824.042 607.594 822.688C606.656 821.281 605.432 820.214 603.922 819.484C602.464 818.703 600.745 818.312 598.766 818.312C596.266 818.312 593.74 819.224 591.188 821.047C588.635 822.87 585.979 825.526 583.219 829.016V875.344C583.219 875.865 583.062 876.333 582.75 876.75C582.438 877.115 581.891 877.427 581.109 877.688C580.38 877.948 579.391 878.13 578.141 878.234C576.891 878.391 575.302 878.469 573.375 878.469C571.448 878.469 569.859 878.391 568.609 878.234C567.359 878.13 566.344 877.948 565.562 877.688C564.833 877.427 564.312 877.115 564 876.75C563.688 876.333 563.531 875.865 563.531 875.344V805.656C563.531 805.135 563.661 804.693 563.922 804.328C564.182 803.911 564.651 803.573 565.328 803.312C566.005 803.052 566.865 802.87 567.906 802.766C569 802.609 570.354 802.531 571.969 802.531C573.635 802.531 575.016 802.609 576.109 802.766C577.203 802.87 578.036 803.052 578.609 803.312C579.234 803.573 579.677 803.911 579.938 804.328C580.198 804.693 580.328 805.135 580.328 805.656V813.703C584.182 809.536 588.089 806.411 592.047 804.328C596.057 802.245 600.224 801.203 604.547 801.203C609.286 801.203 613.271 801.984 616.5 803.547C619.781 805.109 622.411 807.245 624.391 809.953C626.422 812.609 627.88 815.734 628.766 819.328C629.651 822.922 630.094 827.245 630.094 832.297V875.344Z" fill="#FEC208"/>
</svg>
