<svg width="804" height="1065" viewBox="0 0 804 1065" fill="none" xmlns="http://www.w3.org/2000/svg">
<rect width="804" height="1065" rx="50" fill="#282C34"/>
<path d="M303.333 600.6L389.667 650V160L180 281.24V386.216L303.333 314.898V600.6Z" fill="#FFA000"/>
<path d="M414.333 650L500.667 600.6V470.78L550 499.305V405.05L500.667 376.518V314.898L624 386.216V281.24L414.333 160V650Z" fill="#FFB300"/>
<path d="M139.496 799.926C139.496 801.247 139.428 802.387 139.291 803.344C139.2 804.255 139.04 805.007 138.812 805.6C138.585 806.146 138.288 806.557 137.924 806.83C137.605 807.104 137.24 807.24 136.83 807.24H114.682V878.539C114.682 878.995 114.522 879.405 114.203 879.77C113.93 880.134 113.451 880.43 112.768 880.658C112.084 880.886 111.15 881.068 109.965 881.205C108.826 881.342 107.39 881.41 105.658 881.41C103.926 881.41 102.468 881.342 101.283 881.205C100.144 881.068 99.2324 880.886 98.5488 880.658C97.8652 880.43 97.3639 880.134 97.0449 879.77C96.7715 879.405 96.6348 878.995 96.6348 878.539V807.24H74.4863C74.0306 807.24 73.6432 807.104 73.3242 806.83C73.0052 806.557 72.7318 806.146 72.5039 805.6C72.276 805.007 72.0938 804.255 71.957 803.344C71.8659 802.387 71.8203 801.247 71.8203 799.926C71.8203 798.559 71.8659 797.396 71.957 796.439C72.0938 795.482 72.276 794.73 72.5039 794.184C72.7318 793.591 73.0052 793.181 73.3242 792.953C73.6432 792.68 74.0306 792.543 74.4863 792.543H136.83C137.24 792.543 137.605 792.68 137.924 792.953C138.288 793.181 138.585 793.591 138.812 794.184C139.04 794.73 139.2 795.482 139.291 796.439C139.428 797.396 139.496 798.559 139.496 799.926ZM193.09 846.41C193.09 848.507 192.611 850.056 191.654 851.059C190.743 852.061 189.467 852.562 187.826 852.562H150.707C150.707 855.16 151.003 857.53 151.596 859.672C152.234 861.768 153.214 863.568 154.535 865.072C155.902 866.531 157.634 867.647 159.73 868.422C161.872 869.197 164.424 869.584 167.387 869.584C170.395 869.584 173.038 869.379 175.316 868.969C177.595 868.513 179.555 868.035 181.195 867.533C182.882 866.986 184.271 866.508 185.365 866.098C186.459 865.642 187.348 865.414 188.031 865.414C188.441 865.414 188.783 865.505 189.057 865.688C189.33 865.824 189.558 866.098 189.74 866.508C189.923 866.918 190.036 867.51 190.082 868.285C190.173 869.014 190.219 869.949 190.219 871.088C190.219 872.09 190.196 872.956 190.15 873.686C190.105 874.369 190.036 874.962 189.945 875.463C189.854 875.964 189.717 876.397 189.535 876.762C189.353 877.081 189.102 877.4 188.783 877.719C188.51 878.038 187.712 878.471 186.391 879.018C185.069 879.564 183.383 880.111 181.332 880.658C179.281 881.16 176.934 881.592 174.291 881.957C171.648 882.367 168.822 882.572 165.814 882.572C160.391 882.572 155.629 881.889 151.527 880.521C147.471 879.154 144.076 877.081 141.342 874.301C138.607 871.521 136.557 868.012 135.189 863.773C133.868 859.535 133.207 854.568 133.207 848.871C133.207 843.448 133.913 838.572 135.326 834.242C136.739 829.867 138.79 826.176 141.479 823.168C144.167 820.115 147.426 817.79 151.254 816.195C155.128 814.6 159.48 813.803 164.311 813.803C169.415 813.803 173.767 814.555 177.367 816.059C181.013 817.562 183.998 819.659 186.322 822.348C188.646 824.991 190.355 828.135 191.449 831.781C192.543 835.427 193.09 839.392 193.09 843.676V846.41ZM176.41 841.488C176.547 836.658 175.567 832.875 173.471 830.141C171.42 827.361 168.23 825.971 163.9 825.971C161.713 825.971 159.799 826.381 158.158 827.201C156.563 828.021 155.219 829.138 154.125 830.551C153.077 831.918 152.257 833.559 151.664 835.473C151.117 837.341 150.798 839.346 150.707 841.488H176.41ZM265.551 878.676C265.551 879.132 265.414 879.542 265.141 879.906C264.867 880.225 264.411 880.499 263.773 880.727C263.135 880.954 262.247 881.114 261.107 881.205C260.014 881.342 258.646 881.41 257.006 881.41C255.32 881.41 253.907 881.342 252.768 881.205C251.674 881.114 250.808 880.954 250.17 880.727C249.532 880.499 249.076 880.225 248.803 879.906C248.529 879.542 248.393 879.132 248.393 878.676V843.881C248.393 840.919 248.165 838.594 247.709 836.908C247.299 835.222 246.684 833.786 245.863 832.602C245.043 831.371 243.972 830.437 242.65 829.799C241.374 829.115 239.87 828.773 238.139 828.773C235.951 828.773 233.741 829.571 231.508 831.166C229.275 832.761 226.951 835.085 224.535 838.139V878.676C224.535 879.132 224.398 879.542 224.125 879.906C223.852 880.225 223.373 880.499 222.689 880.727C222.051 880.954 221.186 881.114 220.092 881.205C218.998 881.342 217.608 881.41 215.922 881.41C214.236 881.41 212.846 881.342 211.752 881.205C210.658 881.114 209.77 880.954 209.086 880.727C208.448 880.499 207.992 880.225 207.719 879.906C207.445 879.542 207.309 879.132 207.309 878.676V817.699C207.309 817.243 207.423 816.856 207.65 816.537C207.878 816.173 208.288 815.876 208.881 815.648C209.473 815.421 210.225 815.261 211.137 815.17C212.094 815.033 213.279 814.965 214.691 814.965C216.15 814.965 217.357 815.033 218.314 815.17C219.271 815.261 220.001 815.421 220.502 815.648C221.049 815.876 221.436 816.173 221.664 816.537C221.892 816.856 222.006 817.243 222.006 817.699V824.74C225.378 821.094 228.796 818.36 232.26 816.537C235.769 814.714 239.415 813.803 243.197 813.803C247.344 813.803 250.831 814.486 253.656 815.854C256.527 817.221 258.829 819.089 260.561 821.459C262.338 823.783 263.614 826.518 264.389 829.662C265.163 832.807 265.551 836.589 265.551 841.01V878.676ZM325.434 861.449C325.434 864.913 324.773 867.966 323.451 870.609C322.175 873.253 320.352 875.463 317.982 877.24C315.613 879.018 312.81 880.339 309.574 881.205C306.339 882.117 302.829 882.572 299.047 882.572C296.768 882.572 294.581 882.39 292.484 882.025C290.434 881.706 288.588 881.296 286.947 880.795C285.307 880.248 283.939 879.701 282.846 879.154C281.752 878.607 280.954 878.106 280.453 877.65C279.952 877.149 279.564 876.397 279.291 875.395C279.018 874.346 278.881 872.82 278.881 870.814C278.881 869.493 278.926 868.445 279.018 867.67C279.109 866.85 279.245 866.212 279.428 865.756C279.61 865.255 279.838 864.936 280.111 864.799C280.385 864.617 280.727 864.525 281.137 864.525C281.638 864.525 282.367 864.822 283.324 865.414C284.327 865.961 285.557 866.576 287.016 867.26C288.474 867.943 290.16 868.581 292.074 869.174C294.034 869.766 296.244 870.062 298.705 870.062C300.255 870.062 301.622 869.903 302.807 869.584C304.037 869.265 305.085 868.809 305.951 868.217C306.863 867.624 307.546 866.872 308.002 865.961C308.458 865.049 308.686 864.001 308.686 862.816C308.686 861.449 308.253 860.287 307.387 859.33C306.566 858.327 305.45 857.462 304.037 856.732C302.67 856.003 301.098 855.32 299.32 854.682C297.589 854.044 295.788 853.337 293.92 852.562C292.097 851.788 290.297 850.899 288.52 849.896C286.788 848.894 285.215 847.663 283.803 846.205C282.436 844.747 281.319 842.992 280.453 840.941C279.633 838.891 279.223 836.43 279.223 833.559C279.223 830.642 279.792 827.976 280.932 825.561C282.071 823.1 283.712 821.003 285.854 819.271C287.995 817.54 290.593 816.195 293.646 815.238C296.745 814.281 300.209 813.803 304.037 813.803C305.951 813.803 307.797 813.939 309.574 814.213C311.397 814.486 313.038 814.828 314.496 815.238C315.954 815.648 317.185 816.104 318.188 816.605C319.19 817.061 319.896 817.471 320.307 817.836C320.762 818.155 321.081 818.497 321.264 818.861C321.446 819.18 321.583 819.59 321.674 820.092C321.765 820.548 321.833 821.14 321.879 821.869C321.97 822.553 322.016 823.419 322.016 824.467C322.016 825.697 321.97 826.7 321.879 827.475C321.833 828.249 321.719 828.865 321.537 829.32C321.4 829.776 321.195 830.095 320.922 830.277C320.648 830.414 320.329 830.482 319.965 830.482C319.555 830.482 318.917 830.255 318.051 829.799C317.185 829.298 316.091 828.773 314.77 828.227C313.493 827.68 311.99 827.178 310.258 826.723C308.572 826.221 306.635 825.971 304.447 825.971C302.898 825.971 301.553 826.13 300.414 826.449C299.275 826.768 298.34 827.224 297.611 827.816C296.882 828.409 296.335 829.115 295.971 829.936C295.606 830.71 295.424 831.553 295.424 832.465C295.424 833.878 295.857 835.062 296.723 836.02C297.589 836.977 298.728 837.82 300.141 838.549C301.553 839.278 303.148 839.962 304.926 840.6C306.749 841.238 308.572 841.944 310.395 842.719C312.263 843.448 314.086 844.314 315.863 845.316C317.686 846.319 319.304 847.549 320.717 849.008C322.13 850.466 323.269 852.221 324.135 854.271C325.001 856.277 325.434 858.669 325.434 861.449ZM400.082 847.572C400.082 852.768 399.398 857.507 398.031 861.791C396.664 866.075 394.59 869.766 391.811 872.865C389.031 875.964 385.544 878.357 381.352 880.043C377.159 881.729 372.26 882.572 366.654 882.572C361.231 882.572 356.514 881.82 352.504 880.316C348.493 878.812 345.167 876.625 342.523 873.754C339.88 870.883 337.921 867.351 336.645 863.158C335.368 858.965 334.73 854.18 334.73 848.803C334.73 843.607 335.414 838.868 336.781 834.584C338.194 830.255 340.29 826.563 343.07 823.51C345.85 820.411 349.314 818.018 353.461 816.332C357.654 814.646 362.553 813.803 368.158 813.803C373.627 813.803 378.367 814.555 382.377 816.059C386.387 817.517 389.691 819.682 392.289 822.553C394.932 825.424 396.892 828.956 398.168 833.148C399.444 837.341 400.082 842.149 400.082 847.572ZM382.377 848.256C382.377 845.248 382.126 842.491 381.625 839.984C381.169 837.432 380.372 835.222 379.232 833.354C378.093 831.485 376.566 830.027 374.652 828.979C372.784 827.93 370.414 827.406 367.543 827.406C364.991 827.406 362.758 827.885 360.844 828.842C358.93 829.753 357.357 831.12 356.127 832.943C354.896 834.721 353.962 836.885 353.324 839.438C352.732 841.944 352.436 844.815 352.436 848.051C352.436 851.059 352.686 853.839 353.188 856.391C353.689 858.897 354.486 861.085 355.58 862.953C356.719 864.822 358.246 866.28 360.16 867.328C362.074 868.331 364.444 868.832 367.27 868.832C369.867 868.832 372.123 868.376 374.037 867.465C375.951 866.508 377.523 865.141 378.754 863.363C379.984 861.586 380.896 859.444 381.488 856.938C382.081 854.385 382.377 851.492 382.377 848.256ZM452.924 823.373C452.924 825.014 452.878 826.358 452.787 827.406C452.696 828.454 452.559 829.275 452.377 829.867C452.195 830.46 451.944 830.87 451.625 831.098C451.352 831.326 450.987 831.439 450.531 831.439C450.167 831.439 449.757 831.371 449.301 831.234C448.845 831.052 448.321 830.87 447.729 830.688C447.182 830.505 446.566 830.346 445.883 830.209C445.199 830.027 444.447 829.936 443.627 829.936C442.67 829.936 441.713 830.141 440.756 830.551C439.799 830.915 438.796 831.508 437.748 832.328C436.745 833.148 435.674 834.242 434.535 835.609C433.441 836.977 432.257 838.663 430.98 840.668V878.676C430.98 879.132 430.844 879.542 430.57 879.906C430.297 880.225 429.818 880.499 429.135 880.727C428.497 880.954 427.631 881.114 426.537 881.205C425.443 881.342 424.053 881.41 422.367 881.41C420.681 881.41 419.291 881.342 418.197 881.205C417.104 881.114 416.215 880.954 415.531 880.727C414.893 880.499 414.438 880.225 414.164 879.906C413.891 879.542 413.754 879.132 413.754 878.676V817.699C413.754 817.243 413.868 816.856 414.096 816.537C414.324 816.173 414.734 815.876 415.326 815.648C415.919 815.421 416.671 815.261 417.582 815.17C418.539 815.033 419.724 814.965 421.137 814.965C422.595 814.965 423.803 815.033 424.76 815.17C425.717 815.261 426.446 815.421 426.947 815.648C427.494 815.876 427.882 816.173 428.109 816.537C428.337 816.856 428.451 817.243 428.451 817.699V825.287C430.046 823.008 431.55 821.14 432.963 819.682C434.376 818.178 435.72 816.993 436.996 816.127C438.272 815.261 439.548 814.669 440.824 814.35C442.1 813.985 443.376 813.803 444.652 813.803C445.245 813.803 445.883 813.848 446.566 813.939C447.25 813.985 447.956 814.099 448.686 814.281C449.415 814.418 450.053 814.6 450.6 814.828C451.146 815.01 451.534 815.215 451.762 815.443C452.035 815.671 452.217 815.922 452.309 816.195C452.445 816.469 452.559 816.856 452.65 817.357C452.742 817.813 452.81 818.52 452.855 819.477C452.901 820.434 452.924 821.732 452.924 823.373Z" fill="#FFA000"/>
<path d="M514.174 799.926C514.174 801.293 514.105 802.455 513.969 803.412C513.878 804.324 513.695 805.053 513.422 805.6C513.194 806.146 512.921 806.557 512.602 806.83C512.283 807.104 511.918 807.24 511.508 807.24H482.592V831.029H509.73C510.141 831.029 510.505 831.143 510.824 831.371C511.143 831.599 511.417 831.986 511.645 832.533C511.918 833.08 512.1 833.809 512.191 834.721C512.328 835.632 512.396 836.771 512.396 838.139C512.396 839.506 512.328 840.645 512.191 841.557C512.1 842.468 511.918 843.22 511.645 843.812C511.417 844.405 511.143 844.838 510.824 845.111C510.505 845.339 510.141 845.453 509.73 845.453H482.592V878.402C482.592 878.904 482.455 879.337 482.182 879.701C481.908 880.066 481.407 880.385 480.678 880.658C479.994 880.886 479.083 881.068 477.943 881.205C476.804 881.342 475.346 881.41 473.568 881.41C471.837 881.41 470.378 881.342 469.193 881.205C468.054 881.068 467.143 880.886 466.459 880.658C465.775 880.385 465.274 880.066 464.955 879.701C464.682 879.337 464.545 878.904 464.545 878.402V798.217C464.545 796.212 465.046 794.776 466.049 793.91C467.097 792.999 468.373 792.543 469.877 792.543H511.508C511.918 792.543 512.283 792.68 512.602 792.953C512.921 793.181 513.194 793.591 513.422 794.184C513.695 794.73 513.878 795.482 513.969 796.439C514.105 797.396 514.174 798.559 514.174 799.926ZM545.004 878.676C545.004 879.132 544.867 879.542 544.594 879.906C544.32 880.225 543.842 880.499 543.158 880.727C542.52 880.954 541.654 881.114 540.561 881.205C539.467 881.342 538.077 881.41 536.391 881.41C534.704 881.41 533.314 881.342 532.221 881.205C531.127 881.114 530.238 880.954 529.555 880.727C528.917 880.499 528.461 880.225 528.188 879.906C527.914 879.542 527.777 879.132 527.777 878.676V788.783C527.777 788.327 527.914 787.917 528.188 787.553C528.461 787.188 528.917 786.892 529.555 786.664C530.238 786.391 531.127 786.186 532.221 786.049C533.314 785.912 534.704 785.844 536.391 785.844C538.077 785.844 539.467 785.912 540.561 786.049C541.654 786.186 542.52 786.391 543.158 786.664C543.842 786.892 544.32 787.188 544.594 787.553C544.867 787.917 545.004 788.327 545.004 788.783V878.676ZM623.891 847.572C623.891 852.768 623.207 857.507 621.84 861.791C620.473 866.075 618.399 869.766 615.619 872.865C612.839 875.964 609.353 878.357 605.16 880.043C600.967 881.729 596.068 882.572 590.463 882.572C585.04 882.572 580.323 881.82 576.312 880.316C572.302 878.812 568.975 876.625 566.332 873.754C563.689 870.883 561.729 867.351 560.453 863.158C559.177 858.965 558.539 854.18 558.539 848.803C558.539 843.607 559.223 838.868 560.59 834.584C562.003 830.255 564.099 826.563 566.879 823.51C569.659 820.411 573.122 818.018 577.27 816.332C581.462 814.646 586.361 813.803 591.967 813.803C597.436 813.803 602.175 814.555 606.186 816.059C610.196 817.517 613.5 819.682 616.098 822.553C618.741 825.424 620.701 828.956 621.977 833.148C623.253 837.341 623.891 842.149 623.891 847.572ZM606.186 848.256C606.186 845.248 605.935 842.491 605.434 839.984C604.978 837.432 604.18 835.222 603.041 833.354C601.902 831.485 600.375 830.027 598.461 828.979C596.592 827.93 594.223 827.406 591.352 827.406C588.799 827.406 586.566 827.885 584.652 828.842C582.738 829.753 581.166 831.12 579.936 832.943C578.705 834.721 577.771 836.885 577.133 839.438C576.54 841.944 576.244 844.815 576.244 848.051C576.244 851.059 576.495 853.839 576.996 856.391C577.497 858.897 578.295 861.085 579.389 862.953C580.528 864.822 582.055 866.28 583.969 867.328C585.883 868.331 588.253 868.832 591.078 868.832C593.676 868.832 595.932 868.376 597.846 867.465C599.76 866.508 601.332 865.141 602.562 863.363C603.793 861.586 604.704 859.444 605.297 856.938C605.889 854.385 606.186 851.492 606.186 848.256ZM730.6 817.562C730.6 818.064 730.531 818.679 730.395 819.408C730.258 820.137 730.007 821.186 729.643 822.553L713.373 877.719C713.145 878.493 712.849 879.132 712.484 879.633C712.12 880.089 711.55 880.453 710.775 880.727C710.046 881 708.975 881.182 707.562 881.273C706.195 881.365 704.395 881.41 702.162 881.41C699.929 881.41 698.106 881.342 696.693 881.205C695.281 881.114 694.164 880.932 693.344 880.658C692.569 880.385 691.999 880.02 691.635 879.564C691.27 879.063 690.997 878.448 690.814 877.719L680.561 840.668L680.424 840.053L680.287 840.668L670.854 877.719C670.671 878.493 670.398 879.132 670.033 879.633C669.714 880.089 669.145 880.453 668.324 880.727C667.504 881 666.387 881.182 664.975 881.273C663.562 881.365 661.739 881.41 659.506 881.41C657.227 881.41 655.382 881.342 653.969 881.205C652.602 881.114 651.508 880.932 650.688 880.658C649.913 880.385 649.343 880.02 648.979 879.564C648.614 879.063 648.34 878.448 648.158 877.719L632.025 822.553C631.615 821.231 631.342 820.206 631.205 819.477C631.114 818.702 631.068 818.064 631.068 817.562C631.068 817.107 631.182 816.719 631.41 816.4C631.684 816.036 632.139 815.762 632.777 815.58C633.461 815.352 634.35 815.193 635.443 815.102C636.583 815.01 637.995 814.965 639.682 814.965C641.505 814.965 642.986 815.01 644.125 815.102C645.264 815.193 646.153 815.352 646.791 815.58C647.429 815.808 647.862 816.127 648.09 816.537C648.363 816.902 648.568 817.357 648.705 817.904L660.805 862.68L660.941 863.5L661.078 862.68L672.426 817.904C672.562 817.357 672.768 816.902 673.041 816.537C673.36 816.127 673.816 815.808 674.408 815.58C675.001 815.352 675.821 815.193 676.869 815.102C677.963 815.01 679.353 814.965 681.039 814.965C682.725 814.965 684.092 815.033 685.141 815.17C686.189 815.261 687.009 815.421 687.602 815.648C688.24 815.831 688.673 816.104 688.9 816.469C689.174 816.788 689.379 817.175 689.516 817.631L701.684 862.748L701.889 863.5L702.025 862.68L713.646 817.904C713.738 817.357 713.92 816.902 714.193 816.537C714.467 816.127 714.923 815.808 715.561 815.58C716.199 815.352 717.064 815.193 718.158 815.102C719.252 815.01 720.642 814.965 722.328 814.965C724.014 814.965 725.382 815.01 726.43 815.102C727.523 815.193 728.367 815.352 728.959 815.58C729.597 815.762 730.03 816.036 730.258 816.4C730.486 816.719 730.6 817.107 730.6 817.562Z" fill="#FFB300"/>
</svg>
